<?xml version="1.0" encoding="UTF-8" standalone="no"?> <svg id="Layer_1" data-name="Layer 1" xmlns="http://www.w3.org/2000/svg" viewBox="0 0 64 64"><title>products-special-stock-goods-present-give</title><path d="M57.808,26a4.4,4.4,0,0,0-4.133,4.154L52.229,42.925a2.8,2.8,0,0,0-2.988.606L40.46,49.158A1,1,0,0,0,40,50V61a1,1,0,0,0,1,1H51a1,1,0,0,0,1-1V59.561l6.583-4.018A8.458,8.458,0,0,0,62,48.5L61.983,30.83C61.98,28.167,60.107,26,57.808,26Zm-.3,27.859-7.026,4.287A1,1,0,0,0,50,59v1H42V50.547l8.4-5.385a.942.942,0,0,0,.168-.134.823.823,0,0,1,1.042-.185,1.211,1.211,0,0,1,.341.3,2.207,2.207,0,0,1,.023,2.526l-6.366,4.458,1.148,1.639,6.475-4.536a.982.982,0,0,0,.177-.158,4.2,4.2,0,0,0,.622-4.308l1.628-14.376A2.469,2.469,0,0,1,57.808,28c1.2,0,2.173,1.27,2.175,2.832L60,48.5A6.445,6.445,0,0,1,57.505,53.859Z"/><path d="M5.453,55.566,12,59.561V61a1,1,0,0,0,1,1H23a1,1,0,0,0,1-1V50a1,1,0,0,0-.46-.842l-8.781-5.627a2.8,2.8,0,0,0-2.988-.606L10.324,30.143A4.392,4.392,0,0,0,6.192,26c-2.3,0-4.172,2.167-4.175,4.83L2,48.5A8.466,8.466,0,0,0,5.453,55.566ZM4.017,30.832C4.019,29.27,4.994,28,6.192,28a2.465,2.465,0,0,1,2.146,2.378L9.967,44.765a4.2,4.2,0,0,0,.622,4.308.982.982,0,0,0,.177.158l6.475,4.536,1.148-1.639L12.023,47.67a2.209,2.209,0,0,1,.022-2.526,1.218,1.218,0,0,1,.341-.3.824.824,0,0,1,1.043.184.942.942,0,0,0,.168.134L22,50.547V60H14V59a1,1,0,0,0-.479-.854L6.532,53.883A6.45,6.45,0,0,1,4,48.5Z"/><path d="M21,11a1,1,0,0,0-1,1V34a1,1,0,0,0,1,1H43a1,1,0,0,0,1-1V12a1,1,0,0,0-1-1ZM42,33H22V13H42Z"/><path d="M35.686,4.357,36.072,2.4A21.162,21.162,0,0,0,32,2h-.021L32,4A19.158,19.158,0,0,1,35.686,4.357Z"/><path d="M36.159,43.588a20.855,20.855,0,0,0,3.935-1.2l-.771-1.845a18.874,18.874,0,0,1-3.558,1.089Z"/><path d="M43.717,40.431a21.149,21.149,0,0,0,3.172-2.621L45.471,36.4A19.08,19.08,0,0,1,42.6,38.771Z"/><path d="M24.029,42.434l.76-1.85A19.038,19.038,0,0,1,21.5,38.838L20.4,40.5A20.911,20.911,0,0,0,24.029,42.434Z"/><path d="M52.592,18.863a20.91,20.91,0,0,0-1.2-3.937l-1.846.77a18.9,18.9,0,0,1,1.085,3.559Z"/><path d="M47.827,33.516l1.665,1.108a21.018,21.018,0,0,0,1.934-3.632l-1.85-.762A18.934,18.934,0,0,1,47.827,33.516Z"/><path d="M49.443,11.3a21.229,21.229,0,0,0-2.617-3.175L45.414,9.543a19.2,19.2,0,0,1,2.369,2.875Z"/><path d="M53,23v-.042L51,23a19.222,19.222,0,0,1-.353,3.667l1.963.383A21.178,21.178,0,0,0,53,23Z"/><path d="M43.643,5.52a21.019,21.019,0,0,0-3.631-1.937l-.763,1.848a18.981,18.981,0,0,1,3.283,1.752Z"/><path d="M28.274,4.365,27.884,2.4a20.95,20.95,0,0,0-3.938,1.2l.768,1.847A18.94,18.94,0,0,1,28.274,4.365Z"/><path d="M11.416,27.181a20.953,20.953,0,0,0,1.209,3.934l1.845-.774a18.856,18.856,0,0,1-1.094-3.557Z"/><path d="M13.361,19.294,11.4,18.907A21.152,21.152,0,0,0,11,23v.085L13,23A19.216,19.216,0,0,1,13.361,19.294Z"/><path d="M16.2,12.45l-1.663-1.112a21.1,21.1,0,0,0-1.941,3.629l1.847.765A19.006,19.006,0,0,1,16.2,12.45Z"/><path d="M17.206,37.9l1.409-1.419a19.19,19.19,0,0,1-2.376-2.869l-1.657,1.119A21.116,21.116,0,0,0,17.206,37.9Z"/><path d="M21.435,7.207,20.32,5.545a21.269,21.269,0,0,0-3.177,2.613l1.415,1.414A19.06,19.06,0,0,1,21.435,7.207Z"/><path d="M27.972,43.614A21.189,21.189,0,0,0,32,44h.063L32,42a19.212,19.212,0,0,1-3.646-.349Z"/><path d="M24.924,22.4l3.409,2.4-1.3,3.878a1,1,0,0,0,1.524,1.134L32,27.391l3.441,2.426a1,1,0,0,0,1.524-1.134l-1.3-3.878,3.409-2.4a1,1,0,0,0-.576-1.818H34.254l-1.306-3.9a1,1,0,0,0-1.9,0l-1.306,3.9H25.5a1,1,0,0,0-.576,1.818Zm5.541.182a1,1,0,0,0,.949-.682L32,20.149l.586,1.752a1,1,0,0,0,.949.682h1.812L33.907,23.6a1,1,0,0,0-.372,1.135l.566,1.691L32.576,25.35a1,1,0,0,0-1.152,0L29.9,26.425l.566-1.691a1,1,0,0,0-.372-1.135l-1.44-1.016Z"/></svg>