<?xml version="1.0" encoding="UTF-8" standalone="no"?> <svg width="64" height="64" viewBox="0 0 64 64" fill="none" xmlns="http://www.w3.org/2000/svg">
<path d="M20 27.988H21.847C21.8976 27.9961 21.9488 28.0001 22 28H29.5C31.3385 27.9958 33.1267 27.3997 34.6 26.3C35.5914 25.5671 36.7704 25.1305 38 25.041V26C38 26.2652 38.1054 26.5196 38.2929 26.7071C38.4804 26.8946 38.7348 27 39 27H45C45.2652 27 45.5196 26.8946 45.7071 26.7071C45.8947 26.5196 46 26.2652 46 26V22C46 21.7348 45.8947 21.4804 45.7071 21.2929C45.5196 21.1054 45.2652 21 45 21C44.7348 21 44.4804 21.1054 44.2929 21.2929C44.1054 21.4804 44 21.7348 44 22V25H40V10H44V18C44 18.2652 44.1054 18.5196 44.2929 18.7071C44.4804 18.8946 44.7348 19 45 19C45.2652 19 45.5196 18.8946 45.7071 18.7071C45.8947 18.5196 46 18.2652 46 18V9C46 8.73479 45.8947 8.48043 45.7071 8.2929C45.5196 8.10536 45.2652 8 45 8H39C38.7348 8 38.4804 8.10536 38.2929 8.2929C38.1054 8.48043 38 8.73479 38 9V23.041C36.3378 23.1339 34.7389 23.7106 33.4 24.7C32.2736 25.5413 30.906 25.9972 29.5 26H22.153C22.1024 25.9919 22.0513 25.9879 22 25.988H20C19.7485 25.9724 19.5121 25.8623 19.3382 25.6798C19.1643 25.4974 19.0658 25.256 19.0622 25.004C19.0587 24.752 19.1504 24.5079 19.3191 24.3206C19.4878 24.1334 19.721 24.0167 19.972 23.994C20.1181 23.9874 20.2608 23.9485 20.39 23.88H22C22.2652 23.88 22.5196 23.7746 22.7071 23.5871C22.8947 23.3996 23 23.1452 23 22.88C23 22.6148 22.8947 22.3604 22.7071 22.1729C22.5196 21.9854 22.2652 21.88 22 21.88H20C19.9033 21.8847 19.8079 21.9039 19.717 21.937C19.5118 21.8802 19.3307 21.7579 19.2013 21.5888C19.0719 21.4197 19.0012 21.213 19 21C19 20.7348 19.1054 20.4804 19.2929 20.2929C19.4804 20.1054 19.7348 20 20 20H22C22.2652 20 22.5196 19.8946 22.7071 19.7071C22.8947 19.5196 23 19.2652 23 19C23 18.7348 22.8947 18.4804 22.7071 18.2929C22.5196 18.1054 22.2652 18 22 18H20C19.7348 18 19.4804 17.8946 19.2929 17.7071C19.1054 17.5196 19 17.2652 19 17C19 16.7348 19.1054 16.4804 19.2929 16.2929C19.4804 16.1054 19.7348 16 20 16H22C22.2652 16 22.5196 15.8946 22.7071 15.7071C22.8947 15.5196 23 15.2652 23 15C23 14.7348 22.8947 14.4804 22.7071 14.2929C22.5196 14.1054 22.2652 14 22 14H20C19.7348 14 19.4804 13.8946 19.2929 13.7071C19.1054 13.5196 19 13.2652 19 13C19 12.7348 19.1054 12.4804 19.2929 12.2929C19.4804 12.1054 19.7348 12 20 12H27C27.177 12 27.3508 11.953 27.5037 11.8638C27.6566 11.7746 27.7831 11.6464 27.8702 11.4924C27.9574 11.3383 28.0021 11.1639 27.9997 10.9869C27.9974 10.8099 27.9482 10.6367 27.857 10.485L27.04 9.123C26.6265 8.43437 26.4081 7.64625 26.4081 6.843C26.4081 6.03976 26.6265 5.25164 27.04 4.56301L33.249 11.663C33.3431 11.7693 33.4587 11.8543 33.5882 11.9124C33.7177 11.9705 33.8581 12.0003 34 12H35C35.2652 12 35.5196 11.8946 35.7071 11.7071C35.8947 11.5196 36 11.2652 36 11C36 10.7348 35.8947 10.4804 35.7071 10.2929C35.5196 10.1054 35.2652 10 35 10H34.454L27.754 2.342C27.6637 2.23856 27.5531 2.15481 27.4291 2.09597C27.3051 2.03713 27.1702 2.00446 27.033 2C26.8957 1.98998 26.7578 2.01103 26.6297 2.06158C26.5016 2.11213 26.3865 2.19089 26.293 2.29201C25.298 3.28434 24.6558 4.57556 24.4649 5.96779C24.274 7.36002 24.5449 8.77645 25.236 10H20C19.4211 10.0004 18.8546 10.1683 18.3689 10.4835C17.8833 10.7987 17.4992 11.2476 17.263 11.7762C17.0269 12.3048 16.9487 12.8904 17.0379 13.4625C17.1272 14.0345 17.38 14.5685 17.766 15C17.2728 15.5494 17 16.2617 17 17C17 17.7383 17.2728 18.4506 17.766 19C17.2742 19.5483 17.0013 20.2584 16.9993 20.9949C16.9972 21.7315 17.2662 22.443 17.755 22.994C17.3703 23.4264 17.1189 23.9609 17.0312 24.5329C16.9434 25.105 17.0229 25.6902 17.2602 26.2181C17.4975 26.7459 17.8824 27.1939 18.3685 27.5079C18.8547 27.822 19.4213 27.9887 20 27.988V27.988Z" fill="black"/>
<path d="M50.926 29.466L50.307 33.077C50.2755 33.2609 50.2961 33.45 50.3664 33.6228C50.4367 33.7956 50.554 33.9453 50.7049 34.055C50.8559 34.1646 51.0345 34.2299 51.2206 34.2433C51.4067 34.2567 51.5929 34.2178 51.758 34.131L55 32.426L58.242 34.126C58.4072 34.2128 58.5933 34.2517 58.7794 34.2383C58.9655 34.2249 59.1441 34.1596 59.2951 34.05C59.446 33.9403 59.5633 33.7906 59.6336 33.6178C59.7039 33.445 59.7245 33.2559 59.693 33.072L59.074 29.461L61.7 26.908C61.8334 26.7778 61.9278 26.6128 61.9724 26.4317C62.017 26.2507 62.0101 26.0608 61.9525 25.8835C61.8948 25.7061 61.7888 25.5485 61.6463 25.4282C61.5038 25.308 61.3305 25.23 61.146 25.203L57.521 24.676L55.9 21.391C55.8083 21.2348 55.6774 21.1053 55.5202 21.0154C55.3631 20.9254 55.1851 20.878 55.004 20.878C54.8229 20.878 54.6449 20.9254 54.4878 21.0154C54.3306 21.1053 54.1997 21.2348 54.108 21.391L52.485 24.676L48.86 25.203C48.6755 25.23 48.5022 25.308 48.3597 25.4282C48.2172 25.5485 48.1112 25.7061 48.0536 25.8835C47.9959 26.0608 47.989 26.2507 48.0337 26.4317C48.0783 26.6128 48.1726 26.7778 48.306 26.908L50.926 29.466ZM53.289 26.579C53.4495 26.5557 53.6018 26.4937 53.733 26.3985C53.8642 26.3032 53.9702 26.1774 54.042 26.032L55 24.092L55.958 26.032C56.0298 26.1774 56.1358 26.3032 56.267 26.3985C56.3982 26.4937 56.5506 26.5557 56.711 26.579L58.851 26.891L57.3 28.4C57.184 28.5132 57.0973 28.6529 57.0473 28.8071C56.9973 28.9613 56.9855 29.1253 57.013 29.285L57.378 31.418L55.464 30.411C55.3203 30.3353 55.1604 30.2958 54.998 30.2958C54.8356 30.2958 54.6757 30.3353 54.532 30.411L52.62 31.418L52.985 29.285C53.0127 29.1254 53.0013 28.9615 52.9516 28.8074C52.902 28.6532 52.8156 28.5134 52.7 28.4L51.151 26.891L53.289 26.579Z" fill="black"/>
<path d="M4.92601 29.466L4.30701 33.077C4.2755 33.2609 4.29607 33.45 4.36639 33.6228C4.43671 33.7956 4.55398 33.9453 4.70494 34.055C4.8559 34.1646 5.03452 34.2299 5.22062 34.2433C5.40672 34.2567 5.59286 34.2178 5.75801 34.131L9.00001 32.426L12.242 34.126C12.4072 34.2128 12.5933 34.2517 12.7794 34.2383C12.9655 34.2249 13.1441 34.1596 13.2951 34.05C13.446 33.9403 13.5633 33.7906 13.6336 33.6178C13.704 33.445 13.7245 33.2559 13.693 33.072L13.074 29.461L15.7 26.908C15.8334 26.7778 15.9278 26.6128 15.9724 26.4317C16.017 26.2507 16.0101 26.0608 15.9525 25.8835C15.8948 25.7061 15.7888 25.5485 15.6463 25.4282C15.5038 25.308 15.3305 25.23 15.146 25.203L11.521 24.676L9.90001 21.391C9.80832 21.2348 9.6774 21.1053 9.52024 21.0154C9.36307 20.9254 9.18511 20.878 9.00401 20.878C8.82291 20.878 8.64495 20.9254 8.48779 21.0154C8.33062 21.1053 8.1997 21.2348 8.10801 21.391L6.48101 24.676L2.85601 25.2C2.67074 25.2262 2.49654 25.3039 2.35322 25.4242C2.2099 25.5446 2.10322 25.7027 2.0453 25.8806C1.98738 26.0585 1.98054 26.2491 2.02557 26.4308C2.0706 26.6124 2.16568 26.7777 2.30001 26.908L4.92601 29.466ZM7.28901 26.579C7.44947 26.5557 7.60185 26.4937 7.73303 26.3985C7.86421 26.3032 7.97025 26.1774 8.04201 26.032L9.00001 24.092L9.95801 26.032C10.0298 26.1774 10.1358 26.3032 10.267 26.3985C10.3982 26.4937 10.5506 26.5557 10.711 26.579L12.851 26.891L11.3 28.4C11.184 28.5132 11.0973 28.6529 11.0473 28.8071C10.9973 28.9613 10.9856 29.1253 11.013 29.285L11.378 31.418L9.46601 30.411C9.32234 30.3353 9.1624 30.2958 9.00001 30.2958C8.83763 30.2958 8.67769 30.3353 8.53401 30.411L6.62001 31.418L6.98501 29.285C7.01272 29.1254 7.00126 28.9615 6.95162 28.8074C6.90197 28.6532 6.81563 28.5134 6.70001 28.4L5.14901 26.891L7.28901 26.579Z" fill="black"/>
<path d="M40.292 32.17C40.0376 32.0982 39.7652 32.1301 39.5342 32.2586C39.3032 32.3872 39.1325 32.6019 39.0595 32.8559C38.9864 33.1099 39.0168 33.3826 39.1442 33.6142C39.2715 33.8458 39.4854 34.0176 39.739 34.092C41.6754 34.6528 43.5446 35.4241 45.313 36.392L42.786 40.692C39.7655 39.0799 36.4208 38.1684 33 38.025V33.036C33.9917 33.0674 34.981 33.1505 35.964 33.285C36.0948 33.3053 36.2284 33.2993 36.3569 33.2676C36.4854 33.2358 36.6063 33.1789 36.7127 33.1C36.819 33.0211 36.9086 32.922 36.9763 32.8082C37.044 32.6944 37.0885 32.5684 37.1071 32.4373C37.1257 32.3062 37.1181 32.1728 37.0847 32.0446C37.0513 31.9165 36.9928 31.7963 36.9127 31.691C36.8325 31.5857 36.7321 31.4973 36.6175 31.431C36.5029 31.3648 36.3763 31.3219 36.245 31.305C34.8389 31.1042 33.4204 31.0023 32 31C24.0463 31.009 16.4209 34.1726 10.7967 39.7967C5.17259 45.4209 2.009 53.0463 2 61C2 61.2652 2.10536 61.5196 2.29289 61.7071C2.48043 61.8946 2.73478 62 3 62H6C6.26522 62 6.51957 61.8946 6.70711 61.7071C6.89464 61.5196 7 61.2652 7 61C7 60.7348 6.89464 60.4804 6.70711 60.2929C6.51957 60.1054 6.26522 60 6 60H4.018C4.16798 55.7038 5.31266 51.5009 7.362 47.722L11.675 50.25C9.9153 53.5598 8.99665 57.2515 9 61C9 61.2652 9.10536 61.5196 9.29289 61.7071C9.48043 61.8946 9.73478 62 10 62C10.2652 62 10.5196 61.8946 10.7071 61.7071C10.8946 61.5196 11 61.2652 11 61C11 55.4305 13.2125 50.089 17.1508 46.1508C21.089 42.2125 26.4305 40 32 40C37.5695 40 42.911 42.2125 46.8492 46.1508C50.7875 50.089 53 55.4305 53 61C53 61.2652 53.1054 61.5196 53.2929 61.7071C53.4804 61.8946 53.7348 62 54 62H61C61.2652 62 61.5196 61.8946 61.7071 61.7071C61.8946 61.5196 62 61.2652 62 61C61.9794 54.4949 59.8538 48.1713 55.9408 42.9746C52.0279 37.778 46.538 33.9875 40.292 32.17V32.17ZM31 38.025C27.6958 38.166 24.4617 39.0227 21.521 40.536L19.045 36.185C22.7421 34.2473 26.8283 33.1672 31 33.025V38.025ZM12.69 48.525L8.369 46C10.6489 42.4257 13.7049 39.411 17.31 37.18L19.784 41.526C16.9394 43.3178 14.5188 45.707 12.69 48.528V48.525ZM44.509 41.706L47.034 37.413C50.5919 39.6975 53.5905 42.7529 55.808 46.353L51.487 48.8C49.7017 45.9591 47.3209 43.5397 44.509 41.709V41.706ZM54.979 60C54.8383 56.7035 53.9854 53.4765 52.479 50.541L56.799 48.094C58.7356 51.7752 59.8233 55.8435 59.982 60H54.979Z" fill="black"/>
<path d="M39.5 43.51C39.0505 43.2531 38.5238 43.1658 38.0154 43.264C37.507 43.3621 37.0506 43.6392 36.729 44.045L30.75 51.664C30.735 51.664 30.72 51.664 30.706 51.671C29.7507 51.9269 28.8928 52.4603 28.2406 53.2038C27.5885 53.9472 27.1715 54.8674 27.0424 55.8479C26.9133 56.8284 27.0778 57.8252 27.5152 58.7122C27.9526 59.5991 28.6432 60.3365 29.4996 60.8309C30.3561 61.3254 31.34 61.5548 32.3268 61.4901C33.3137 61.4253 34.2591 61.0694 35.0437 60.4673C35.8282 59.8652 36.4166 59.044 36.7344 58.1075C37.0522 57.171 37.0851 56.1612 36.829 55.206C36.829 55.191 36.817 55.179 36.813 55.164L40.421 46.177C40.6123 45.6958 40.6246 45.162 40.4556 44.6726C40.2865 44.1831 39.9475 43.7706 39.5 43.51V43.51ZM34.6 58C34.3033 58.5137 33.861 58.9278 33.3289 59.1901C32.7969 59.4525 32.199 59.5512 31.6108 59.4738C31.0227 59.3963 30.4707 59.1463 30.0247 58.7553C29.5786 58.3642 29.2585 57.8497 29.1048 57.2768C28.9511 56.7038 28.9706 56.0982 29.1611 55.5364C29.3515 54.9746 29.7042 54.4818 30.1746 54.1204C30.645 53.759 31.212 53.5452 31.8039 53.506C32.3958 53.4667 32.986 53.6039 33.5 53.9C33.8416 54.0968 34.1411 54.3591 34.3813 54.6717C34.6215 54.9843 34.7977 55.3412 34.8998 55.722C35.002 56.1028 35.0281 56.5 34.9767 56.8909C34.9252 57.2817 34.7972 57.6586 34.6 58ZM38.567 45.432L35.534 52.989C34.9266 52.3428 34.1417 51.8906 33.278 51.689L38.3 45.28C38.3234 45.2509 38.3564 45.2312 38.393 45.2242C38.4297 45.2172 38.4676 45.2236 38.5 45.242C38.5318 45.2607 38.5558 45.2901 38.5677 45.325C38.5797 45.3598 38.5787 45.3978 38.565 45.432H38.567Z" fill="black"/>
<path d="M32.2587 57.4655C32.7922 57.3226 33.1088 56.7742 32.9658 56.2408C32.8229 55.7073 32.2746 55.3907 31.7411 55.5337C31.2076 55.6766 30.8911 56.225 31.034 56.7584C31.1769 57.2919 31.7253 57.6085 32.2587 57.4655Z" fill="black"/>
<path d="M43.19 48.219C43.0926 48.1255 42.9774 48.0527 42.8511 48.0049C42.7248 47.9571 42.5902 47.9354 42.4554 47.9411C42.3205 47.9467 42.1881 47.9797 42.0663 48.0378C41.9445 48.096 41.8357 48.1782 41.7466 48.2796C41.6574 48.3809 41.5897 48.4993 41.5474 48.6275C41.5052 48.7557 41.4894 48.8911 41.5009 49.0256C41.5125 49.1601 41.5511 49.2909 41.6145 49.4101C41.678 49.5292 41.7649 49.6343 41.87 49.719C44.1424 51.7043 45.7636 54.3284 46.522 57.249C46.5929 57.5006 46.7595 57.7145 46.9862 57.8448C47.2128 57.9751 47.4815 58.0115 47.7346 57.9461C47.9877 57.8807 48.2052 57.7188 48.3404 57.4951C48.4756 57.2713 48.5178 57.0035 48.458 56.749C47.5998 53.4406 45.7639 50.4678 43.19 48.219V48.219Z" fill="black"/>
<path d="M31.992 46C32.021 46 32.131 46.009 32.16 46.009C32.4135 46.0069 32.6561 45.9053 32.8355 45.7262C33.0148 45.547 33.1167 45.3045 33.119 45.051C33.1217 44.7891 33.025 44.536 32.8486 44.3425C32.6722 44.149 32.429 44.0295 32.168 44.008C32.139 44.008 32.029 43.999 32 43.999C28.2295 43.9971 24.5654 45.2487 21.5841 47.557C18.6028 49.8653 16.4734 53.0992 15.531 56.75C15.4981 56.8772 15.4906 57.0097 15.5089 57.1399C15.5272 57.2701 15.571 57.3953 15.6378 57.5086C15.7046 57.6218 15.793 57.7207 15.8981 57.7997C16.0031 57.8787 16.1227 57.9363 16.25 57.969C16.3318 57.9895 16.4157 57.9999 16.5 58C16.7217 57.9999 16.937 57.9262 17.1122 57.7905C17.2874 57.6547 17.4126 57.4646 17.468 57.25C18.2992 54.0306 20.1766 51.1786 22.805 49.1423C25.4335 47.1059 28.664 46.0006 31.989 46H31.992Z" fill="black"/>
</svg>
