<svg xmlns="http://www.w3.org/2000/svg" xml:space="preserve" width="1.70666in" height="1.70666in" version="1.1" style="shape-rendering:geometricPrecision; text-rendering:geometricPrecision; image-rendering:optimizeQuality; fill-rule:evenodd; clip-rule:evenodd" viewBox="0 0 1707 1707" xmlns:xlink="http://www.w3.org/1999/xlink">
<defs>
<style type="text/css">
   
    .fil7 {fill:none;fill-rule:nonzero}
    .fil15 {fill:#BDBFC1}
    .fil18 {fill:#A3A7B5}
    .fil14 {fill:#BC939E}
    .fil9 {fill:#E8AD80}
    .fil1 {fill:#EDEDF7}
    .fil6 {fill:#606062;fill-rule:nonzero}
    .fil2 {fill:#5C5F64;fill-rule:nonzero}
    .fil17 {fill:#9497A9;fill-rule:nonzero}
    .fil16 {fill:#A3A7B5;fill-rule:nonzero}
    .fil10 {fill:#BC8C68;fill-rule:nonzero}
    .fil0 {fill:#CAD0E8;fill-rule:nonzero}
    .fil13 {fill:#D1A3B0;fill-rule:nonzero}
    .fil3 {fill:#D5D5DE;fill-rule:nonzero}
    .fil12 {fill:#DABF7D;fill-rule:nonzero}
    .fil11 {fill:#E6E6E6;fill-rule:nonzero}
    .fil8 {fill:#E8AD80;fill-rule:nonzero}
    .fil4 {fill:#EDEDF7;fill-rule:nonzero}
    .fil5 {fill:#F2D48B;fill-rule:nonzero}
   
  </style>
</defs>
<g id="Layer_x0020_1">
<metadata id="CorelCorpID_0Corel-Layer"></metadata>
<g id="_471156016">
<g>
<path class="fil0" d="M219 211l1269 0c17,0 32,7 44,18 11,11 18,27 18,44l0 909c0,17 -7,32 -18,44 -12,11 -27,18 -44,18l-1269 0c-17,0 -33,-7 -44,-18 -11,-12 -18,-27 -18,-44l0 -909c0,-17 7,-33 18,-44 11,-11 27,-18 44,-18z" id="id_101" style="fill: rgb(138, 181, 144);"></path>
<path class="fil1" d="M1488 211l-1269 0c-17,0 -33,7 -44,18 -11,11 -18,27 -18,44l0 128 1393 0 0 -128c0,-17 -7,-33 -18,-44 -12,-11 -27,-18 -44,-18z" id="id_102"></path>
<path class="fil2" d="M280 284c34,0 35,53 0,53 -24,0 -35,-29 -19,-45l0 0c5,-5 12,-8 19,-8z" id="id_103"></path>
<path class="fil2" d="M413 284c34,0 35,53 0,53 -24,0 -36,-29 -19,-45l0 0c5,-5 12,-8 19,-8z" id="id_104"></path>
<path class="fil2" d="M546 284c34,0 35,53 0,53 -15,0 -27,-12 -27,-26 0,-12 8,-19 8,-19l0 0c5,-5 12,-8 19,-8z" id="id_105"></path>
</g>
<path class="fil3" d="M558 616l0 0 591 0c6,0 11,5 11,11l0 0 0 457c0,6 -5,11 -11,11l0 0 -591 0c-6,0 -11,-5 -11,-11l0 0 0 -457c0,-6 5,-11 11,-11z" id="id_106"></path>
<g>
<path class="fil4" d="M524 583l0 0 592 0c5,0 10,4 10,10l0 1 0 457c0,6 -5,11 -10,11l-1 0 -591 0c-6,0 -10,-5 -10,-11l0 0 0 -458c0,-6 4,-10 10,-10z" id="id_107"></path>
<path class="fil0" d="M741 683c4,0 8,1 12,2l0 0c4,1 8,3 12,5l0 0 158 91 0 0c7,4 13,10 17,17 4,8 6,16 6,24 0,9 -2,17 -6,24l0 0c-4,7 -10,13 -17,17l-158 92 0 0c-6,3 -13,5 -20,6 -7,0 -14,-1 -20,-3 -10,-3 -18,-10 -23,-17 -6,-8 -9,-18 -9,-28l0 0 0 -183 0 0c1,-13 6,-25 15,-33 8,-8 20,-14 33,-14z" id="id_108" style="fill: rgb(86, 227, 107);"></path>
</g>
<g>
<g>
<path class="fil5" d="M518 1010c0,1 -74,33 -150,-1 -18,-7 -34,-4 -49,6 -11,7 -21,18 -31,31 -9,13 -17,29 -24,44 -21,49 -32,105 -25,120 -1,12 -12,98 -17,186l504 0c-4,-39 -13,-83 -13,-83l0 0 -57 -203 0 0c0,0 -24,-86 -136,-100l-2 0z" id="id_109"></path>
<g>
<path class="fil6" d="M550 840c1,7 4,18 7,28 -1,0 -1,0 -1,0 -3,0 -6,2 -6,5l0 0c0,0 -2,39 -10,44 -7,5 -16,20 -21,31l-5 -8c0,-1 -1,-2 -2,-3 -3,-1 -7,0 -8,3l0 0c-2,4 -13,15 -15,17 -2,1 -10,7 -18,14 -5,5 -10,10 -14,15 -5,5 -9,11 -11,16l-1 1 0 0c0,2 1,4 1,4l0 0 0 0 -14 -12c0,0 -1,-1 -1,-1 -3,-2 -6,-1 -8,2l0 0 -2 3 -6 -4c-2,-1 -4,-1 -6,0l0 0 -9 5 -11 -10c-2,-2 -5,-2 -7,-1l0 0 -7 4c-31,-26 -47,-68 -48,-73 -1,0 -1,-1 -1,-1 -2,-3 -5,-4 -8,-2l0 0c-3,2 -6,5 -8,9 0,-2 0,-4 0,-5l0 0 0 0 10 -77c1,-2 0,-4 -2,-5 -2,-2 -5,-2 -7,0 3,-29 17,-47 19,-50 0,0 0,0 0,-1l0 0c46,-70 95,-63 98,-62l0 0 0 0c2,0 5,-1 6,-2l0 0 11 -18 0 0 0 0 0 0c20,-26 57,-15 60,-14 0,0 1,0 1,0l0 0c0,0 24,3 42,29 16,22 -7,40 -10,42 -2,1 -3,4 -2,6l6 17c4,13 5,30 7,44 0,4 1,7 1,10z" id="id_110"></path>
<line class="fil7" x1="359" y1="894" x2="359" y2="894" id="id_111"></line>
<path class="fil8" d="M516 866l-4 0c8,-36 -42,-55 -63,-47 -8,3 -18,4 -34,4 -30,1 -39,35 -41,48l-5 0 -1 0c0,0 -1,0 -2,0l0 0c-10,5 -7,21 -7,22l0 0 0 1c3,16 13,22 19,24 3,14 19,66 71,58 51,-8 57,-49 58,-61 6,-3 15,-10 18,-26l0 0 0 0 0 -1c0,0 3,-16 -7,-22 0,0 -1,0 -2,0z" id="id_112"></path>
<path class="fil9" d="M449 974c11,-2 20,-5 28,-10 4,13 20,29 46,45 -11,25 -44,28 -79,28 -35,0 -69,-3 -78,-28 11,-5 37,-18 45,-42 10,6 22,9 38,7z" id="id_113"></path>
<path class="fil10" d="M424 851c4,0 8,1 11,3l0 0c3,3 5,6 5,10 0,3 -2,7 -5,9l0 0c-3,2 -7,3 -11,3 -4,0 -8,-1 -11,-3l0 0c-3,-2 -5,-6 -5,-9 0,-4 2,-7 5,-10l0 0c3,-2 7,-3 11,-3z" id="id_114"></path>
<path class="fil10" d="M477 851c4,0 8,1 10,3l0 0c4,3 6,6 6,10 0,3 -2,7 -6,9l0 0c-2,2 -6,3 -10,3 -5,0 -8,-1 -11,-3l0 0c-4,-2 -6,-6 -6,-9 0,-4 2,-7 6,-10l0 0c3,-2 6,-3 11,-3z" id="id_115"></path>
<path class="fil10" d="M463 912c2,-2 4,-1 6,1 1,2 0,4 -2,5 0,0 -16,11 -33,0 -2,-1 -3,-3 -2,-5 2,-2 4,-3 6,-2 13,9 25,1 25,1z" id="id_116"></path>
<path class="fil11" d="M419 862c2,0 4,1 5,2l0 0c2,1 3,3 3,4 0,2 -1,4 -3,5l0 0c-1,1 -3,2 -5,2 -3,0 -4,-1 -6,-2l0 0c-2,-1 -3,-3 -3,-5 0,-1 1,-3 3,-4l0 0c2,-1 3,-2 6,-2z" id="id_117"></path>
<path class="fil11" d="M471 862c3,0 5,1 6,2l0 0c2,1 3,3 3,4 0,2 -1,4 -3,5l0 0c-1,1 -3,2 -6,2 -2,0 -4,-1 -5,-2l0 0c-2,-1 -3,-3 -3,-5 0,-1 1,-3 3,-4l0 0c1,-1 3,-2 5,-2z" id="id_118"></path>
</g>
</g>
<path class="fil12" d="M612 1150c0,-3 2,-6 5,-6 3,0 6,2 6,6 0,0 6,122 17,246l-12 0c-10,-124 -16,-245 -16,-246z" id="id_119"></path>
<path class="fil12" d="M333 1149c0,-3 -3,-6 -6,-6 -3,1 -5,3 -5,7 0,0 8,121 12,246l11 0c-3,-125 -12,-247 -12,-247z" id="id_120"></path>
</g>
<path class="fil13" d="M227 1350l1253 0c6,0 12,2 16,6l0 0c4,5 6,10 6,16l0 98c0,6 -2,12 -6,16l0 0c-4,4 -10,7 -16,7l-1253 0c-6,0 -12,-3 -16,-7l0 0c-4,-4 -7,-10 -7,-16l0 -98c0,-6 3,-11 7,-16l0 0c4,-4 10,-6 16,-6z" id="id_121" style="fill: rgb(80, 217, 101);"></path>
<path class="fil14" d="M241 1456l0 0zm-37 -84l0 98c0,6 3,12 7,16 4,4 10,7 16,7l1253 0c6,0 12,-3 16,-7 4,-4 6,-10 6,-16l0 -7 -1245 0c-6,0 -12,-3 -16,-7 -4,-4 -7,-10 -7,-16l0 -90 -7 0c-6,0 -12,2 -16,6 -4,5 -7,10 -7,16z" id="id_122" style="fill: rgb(55, 184, 74);"></path>
<polygon class="fil15" points="1707,1489 1707,1496 0,1496 0,1489 " id="id_123"></polygon>
<g>
<path class="fil4" d="M1364 1142c-3,-2 -4,-5 -4,-9 0,-3 1,-6 4,-8l58 -53 -58 -53c-3,-2 -4,-5 -4,-9 0,-3 1,-6 4,-9 3,-2 6,-3 10,-3 4,0 7,1 10,3 22,21 45,41 68,62 2,2 4,6 4,9 0,0 0,0 0,0 0,3 -2,6 -4,9 -23,20 -46,41 -68,61 -3,3 -6,4 -10,4 -4,0 -7,-1 -10,-4z" id="id_124"></path>
<path class="fil4" d="M1284 1142c-3,-2 -4,-5 -4,-9 0,-3 1,-6 4,-8l58 -53 -58 -53c-3,-2 -4,-5 -4,-9 0,-3 1,-6 4,-9 2,-2 6,-3 10,-3 3,0 7,1 9,3 23,21 46,41 68,62 3,2 4,6 4,9 0,0 0,0 0,0 0,3 -1,6 -4,9 -22,20 -45,41 -68,61 -2,3 -6,4 -9,4 -4,0 -8,-1 -10,-4z" id="id_125"></path>
</g>
<g>
<path class="fil4" d="M1409 699c6,0 11,3 15,7 4,3 7,9 7,15l0 150c0,6 -3,11 -7,15 -4,4 -9,7 -15,7 -6,0 -12,-3 -15,-7 -4,-4 -7,-9 -7,-15l0 -150c0,-6 3,-12 7,-15 3,-4 9,-7 15,-7z" id="id_126"></path>
<path class="fil4" d="M1327 699c6,0 11,3 15,7 4,3 6,9 6,15l0 150c0,6 -2,11 -6,15 -4,4 -9,7 -15,7 -6,0 -12,-3 -16,-7 -4,-4 -6,-9 -6,-15l0 -150c0,-6 2,-12 6,-15 4,-4 10,-7 16,-7z" id="id_127"></path>
</g>
<g>
<path class="fil16" d="M523 1319l271 0c4,0 8,1 11,4 3,3 5,8 5,12 0,5 -2,9 -5,12l0 0c-3,3 -7,6 -12,6l-270 0c-5,0 -8,-3 -11,-6l0 0c-3,-3 -5,-7 -5,-12 0,-4 2,-9 5,-12l0 0c3,-3 7,-4 11,-4z" id="id_128"></path>
<path class="fil3" d="M1125 1354l-383 -1 0 0c0,0 0,0 -1,0 -2,-1 -3,-4 -2,-6l0 0 69 -273c5,-18 12,-34 23,-45l1 0 0 0c9,-10 22,-16 38,-16l318 0c7,0 13,1 19,2 12,4 23,10 31,19 8,8 14,19 14,31 0,3 -1,7 -2,11l-63 215c-5,17 -13,33 -24,45l0 0 0 0c-10,10 -22,18 -38,18z" id="id_129"></path>
<path class="fil17" d="M995 1143c11,0 21,4 28,11 7,7 11,17 11,28 0,11 -4,21 -11,28 -7,7 -17,11 -28,11 -11,0 -20,-4 -28,-11 -7,-7 -11,-17 -11,-28 0,-11 4,-21 11,-28 8,-7 17,-11 28,-11z" id="id_130"></path>
<path class="fil18" d="M984 1147c11,0 20,4 27,11 7,7 12,17 12,28 0,11 -5,21 -12,28 -2,2 -6,5 -9,7 8,-2 15,-6 21,-11 7,-7 11,-17 11,-28 0,-11 -4,-21 -11,-28 -7,-7 -17,-11 -28,-11 -6,0 -13,2 -18,4 2,0 4,0 7,0z" id="id_131"></path>
</g>
</g>
</g>
</svg>