<svg width="1500" height="1500" viewBox="0 0 1500 1500" fill="none" xmlns="http://www.w3.org/2000/svg">
<g clip-path="url(#clip0_7_4109)">
<path d="M399.612 1253.46L420.49 1246.84C423.092 1235.64 422.919 1223.97 419.987 1212.84C411.599 1231.49 386.991 1236.06 372.97 1250.95C368.632 1255.62 365.403 1261.21 363.52 1267.31C361.638 1273.4 361.151 1279.84 362.096 1286.15L357.703 1301.05C367.962 1300.17 377.909 1297.08 386.859 1291.99C395.808 1286.9 403.548 1279.93 409.544 1271.56C412.862 1266.83 415.57 1261.7 417.606 1256.3C408.703 1255.41 399.612 1253.46 399.612 1253.46Z" fill="#F2F2F2" id="id_283"></path>
<path d="M1139.49 1253.46L1118.61 1246.84C1116.01 1235.64 1116.18 1223.97 1119.12 1212.84C1127.5 1231.49 1152.11 1236.06 1166.13 1250.95C1170.47 1255.62 1173.7 1261.21 1175.58 1267.31C1177.46 1273.4 1177.95 1279.84 1177.01 1286.15L1181.4 1301.05C1171.14 1300.17 1161.19 1297.08 1152.24 1291.99C1143.29 1286.9 1135.55 1279.93 1129.56 1271.56C1126.24 1266.83 1123.53 1261.7 1121.5 1256.3C1130.4 1255.41 1139.49 1253.46 1139.49 1253.46Z" fill="#F2F2F2" id="id_284"></path>
<path d="M377.303 1225.91L393.036 1210.67C390.367 1199.48 385.008 1189.12 377.422 1180.47C378.233 1200.9 358.245 1215.96 352.334 1235.54C350.538 1241.66 350.141 1248.1 351.174 1254.4C352.207 1260.69 354.643 1266.67 358.302 1271.9L361.016 1287.19C369.807 1281.83 377.332 1274.63 383.072 1266.08C388.812 1257.53 392.63 1247.84 394.264 1237.68C395.124 1231.97 395.262 1226.17 394.673 1220.42C386.307 1223.6 377.303 1225.91 377.303 1225.91Z" fill="#F2F2F2" id="id_285"></path>
<path d="M419.364 942.207C417.645 942.437 415.897 942.288 414.242 941.769C412.588 941.251 411.067 940.376 409.787 939.207C408.507 938.037 407.499 936.601 406.834 934.999C406.169 933.398 405.863 931.67 405.938 929.938L330.105 853L351.275 838.263L419.159 918.524C422.061 918.843 424.746 920.216 426.703 922.382C428.661 924.547 429.756 927.356 429.781 930.275C429.806 933.194 428.76 936.021 426.84 938.22C424.92 940.419 422.26 941.838 419.364 942.207L419.364 942.207Z" fill="#FFB6B6" id="id_286"></path>
<path d="M306.776 819.72C306.776 819.72 301.402 822.942 310.347 832.75C317.509 840.603 348.76 878.358 361.234 886.241C360.557 888.195 360.549 890.319 361.212 892.278C361.875 894.237 363.171 895.92 364.896 897.061L384.074 873.129C382.979 866.268 378.352 866.618 375.753 867.451L363.72 852.495L336.457 806.769L310.62 817.323L306.776 819.72Z" fill="#CA63FF" id="id_287"></path>
<path d="M246.887 1278.15H261.184L267.988 1223.01H246.887V1278.15Z" fill="#FFB6B6" id="id_288"></path>
<path d="M242.222 1268.36L265.062 1267V1276.78L286.777 1291.78C287.85 1292.52 288.658 1293.58 289.083 1294.82C289.508 1296.05 289.528 1297.38 289.14 1298.63C288.752 1299.87 287.976 1300.96 286.927 1301.73C285.877 1302.5 284.607 1302.92 283.304 1302.92H256.112L251.425 1293.24L249.595 1302.92H239.342L242.222 1268.36Z" fill="#3ad64c" id="id_289"></path>
<path d="M327.193 1278.15H341.49L348.294 1223.01H327.193V1278.15Z" fill="#FFB6B6" id="id_290"></path>
<path d="M322.527 1268.36L345.368 1267V1276.78L367.083 1291.78C368.155 1292.52 368.963 1293.58 369.388 1294.82C369.813 1296.05 369.833 1297.38 369.445 1298.63C369.057 1299.87 368.282 1300.96 367.232 1301.73C366.182 1302.5 364.913 1302.92 363.609 1302.92H336.417L331.73 1293.24L329.9 1302.92H319.647L322.527 1268.36Z" fill="#3ac94b" id="id_291"></path>
<path d="M240.719 1230.6H240.875L243.624 1140.95C241.845 1137.52 240.942 1133.7 240.996 1129.83C241.049 1125.97 242.058 1122.17 243.932 1118.79L244.326 1118.08L243.305 1113.35C241.994 1107.27 242.596 1100.94 245.027 1095.21L247.592 1011.58C238.428 952.197 282.1 913.469 282.1 913.469L274.119 879.899L353.129 872.128L347.52 913.469L361.565 961.721C370.85 1052.18 369.166 1140.32 354.432 1225.72L354.833 1225.92C356.28 1226.42 356.9 1228.43 356.219 1230.4C355.539 1232.37 353.814 1233.56 352.368 1233.06L317.818 1231.86C316.372 1231.36 315.751 1229.36 316.432 1227.39C317.113 1225.42 318.838 1224.22 320.284 1224.72L322.633 1225.91L317.623 1139.39L318.179 1123.59L317.034 1105.67L311.738 1025.03L291.692 1124.19L271.217 1231.6C271.782 1232.11 272.178 1232.78 272.354 1233.52C272.529 1234.26 272.476 1235.04 272.201 1235.75C271.926 1236.46 271.442 1237.07 270.813 1237.5C270.184 1237.93 269.439 1238.16 268.677 1238.16H240.719C239.717 1238.16 238.756 1237.76 238.048 1237.05C237.339 1236.34 236.941 1235.38 236.941 1234.38C236.941 1233.38 237.339 1232.42 238.048 1231.71C238.756 1231 239.717 1230.6 240.719 1230.6Z" fill="#3ab549" id="id_292"></path>
<path d="M998.364 897.865H509.708C493.278 897.846 477.526 891.311 465.908 879.694C454.291 868.077 447.756 852.327 447.737 835.898V625.864C447.756 609.466 454.266 593.742 465.845 582.13C477.425 570.518 493.131 563.962 509.53 563.897C585.421 542.893 666.001 532.503 749.069 533.018C828.112 533.508 912.035 543.897 998.512 563.897C1014.92 563.956 1030.63 570.508 1042.21 582.12C1053.8 593.733 1060.32 609.461 1060.33 625.864V835.898C1060.32 852.327 1053.78 868.077 1042.16 879.694C1030.55 891.311 1014.79 897.846 998.364 897.865ZM509.708 566.488C493.964 566.505 478.871 572.767 467.739 583.898C456.607 595.03 450.346 610.122 450.328 625.864V835.898C450.345 851.64 456.607 866.732 467.739 877.864C478.871 888.995 493.964 895.257 509.707 895.274H998.364C1014.11 895.257 1029.2 888.995 1040.33 877.864C1051.46 866.732 1057.73 851.64 1057.74 835.898V625.864C1057.73 610.122 1051.46 595.03 1040.33 583.898C1029.2 572.767 1014.11 566.505 998.364 566.488L998.072 566.454C819.121 525.048 659.489 525.042 510.053 566.441L509.708 566.488Z" fill="#E6E6E6" id="id_293"></path>
<path d="M501.088 843.05C500.896 843.05 500.705 843.012 500.527 842.939C500.349 842.865 500.187 842.757 500.051 842.621C499.915 842.485 499.807 842.323 499.733 842.145C499.66 841.967 499.622 841.777 499.622 841.584V620.178C499.622 619.789 499.776 619.416 500.051 619.141C500.326 618.866 500.699 618.711 501.088 618.711C501.477 618.711 501.85 618.866 502.125 619.141C502.4 619.416 502.555 619.789 502.555 620.178V841.584C502.555 841.777 502.517 841.967 502.443 842.145C502.369 842.323 502.261 842.485 502.125 842.621C501.989 842.757 501.827 842.865 501.649 842.939C501.471 843.012 501.281 843.05 501.088 843.05Z" fill="#E6E6E6" id="id_294"></path>
<path d="M629.318 843.05C629.125 843.05 628.934 843.012 628.756 842.939C628.578 842.865 628.417 842.757 628.281 842.621C628.144 842.485 628.036 842.323 627.963 842.145C627.889 841.967 627.851 841.777 627.851 841.584V620.178C627.851 619.789 628.006 619.416 628.281 619.141C628.556 618.866 628.929 618.711 629.318 618.711C629.706 618.711 630.079 618.866 630.354 619.141C630.629 619.416 630.784 619.789 630.784 620.178V841.584C630.784 841.777 630.746 841.967 630.672 842.145C630.599 842.323 630.491 842.485 630.355 842.621C630.218 842.757 630.057 842.865 629.879 842.939C629.701 843.012 629.51 843.05 629.318 843.05Z" fill="#E6E6E6" id="id_295"></path>
<path d="M757.547 843.05C757.354 843.05 757.164 843.012 756.986 842.939C756.808 842.865 756.646 842.757 756.51 842.621C756.374 842.485 756.266 842.323 756.192 842.145C756.118 841.967 756.081 841.777 756.081 841.584V620.178C756.081 619.789 756.235 619.416 756.51 619.141C756.785 618.866 757.158 618.711 757.547 618.711C757.936 618.711 758.309 618.866 758.584 619.141C758.859 619.416 759.013 619.789 759.013 620.178V841.584C759.013 841.777 758.975 841.967 758.902 842.145C758.828 842.323 758.72 842.485 758.584 842.621C758.448 842.757 758.286 842.865 758.108 842.939C757.93 843.012 757.74 843.05 757.547 843.05Z" fill="#E6E6E6" id="id_296"></path>
<path d="M885.776 843.05C885.584 843.05 885.393 843.012 885.215 842.939C885.037 842.865 884.876 842.757 884.739 842.621C884.603 842.485 884.495 842.323 884.421 842.145C884.348 841.967 884.31 841.777 884.31 841.584V620.178C884.31 619.789 884.464 619.416 884.739 619.141C885.014 618.866 885.387 618.711 885.776 618.711C886.165 618.711 886.538 618.866 886.813 619.141C887.088 619.416 887.243 619.789 887.243 620.178V841.584C887.243 841.777 887.205 841.967 887.131 842.145C887.058 842.323 886.949 842.485 886.813 842.621C886.677 842.757 886.515 842.865 886.338 842.939C886.16 843.012 885.969 843.05 885.776 843.05Z" fill="#E6E6E6" id="id_297"></path>
<path d="M489.667 653.171C489.667 652.979 489.705 652.788 489.779 652.61C489.853 652.432 489.961 652.27 490.097 652.134C490.233 651.998 490.395 651.89 490.573 651.816C490.751 651.743 490.941 651.705 491.134 651.705H1016.94C1017.13 651.705 1017.32 651.743 1017.5 651.816C1017.68 651.89 1017.84 651.998 1017.97 652.134C1018.11 652.27 1018.22 652.432 1018.29 652.61C1018.37 652.788 1018.4 652.979 1018.4 653.171C1018.4 653.364 1018.37 653.554 1018.29 653.732C1018.22 653.91 1018.11 654.072 1017.97 654.208C1017.84 654.344 1017.68 654.452 1017.5 654.526C1017.32 654.599 1017.13 654.637 1016.94 654.637H491.134C490.941 654.637 490.751 654.6 490.573 654.526C490.395 654.452 490.233 654.344 490.097 654.208C489.961 654.072 489.853 653.91 489.779 653.732C489.705 653.554 489.667 653.364 489.667 653.171Z" fill="#E6E6E6" id="id_298"></path>
<path d="M489.667 816.362C489.667 816.169 489.705 815.978 489.779 815.8C489.853 815.622 489.961 815.461 490.097 815.325C490.233 815.188 490.395 815.08 490.573 815.007C490.751 814.933 490.941 814.895 491.134 814.895H1016.94C1017.33 814.895 1017.7 815.05 1017.97 815.325C1018.25 815.6 1018.4 815.973 1018.4 816.362C1018.4 816.75 1018.25 817.123 1017.97 817.398C1017.7 817.673 1017.33 817.828 1016.94 817.828H491.134C490.941 817.828 490.751 817.79 490.573 817.716C490.395 817.643 490.233 817.535 490.097 817.398C489.961 817.262 489.853 817.101 489.779 816.923C489.705 816.745 489.667 816.554 489.667 816.362Z" fill="#E6E6E6" id="id_299"></path>
<path d="M489.667 734.766C489.667 734.574 489.705 734.383 489.779 734.205C489.853 734.027 489.961 733.866 490.097 733.729C490.233 733.593 490.395 733.485 490.573 733.412C490.751 733.338 490.941 733.3 491.134 733.3H1016.94C1017.33 733.3 1017.7 733.455 1017.97 733.729C1018.25 734.004 1018.4 734.377 1018.4 734.766C1018.4 735.155 1018.25 735.528 1017.97 735.803C1017.7 736.078 1017.33 736.233 1016.94 736.233H491.134C490.941 736.233 490.751 736.195 490.573 736.121C490.395 736.047 490.233 735.939 490.097 735.803C489.961 735.667 489.853 735.505 489.779 735.327C489.705 735.15 489.667 734.959 489.667 734.766Z" fill="#E6E6E6" id="id_300"></path>
<path d="M1009.92 843.05C1010.11 843.05 1010.3 843.012 1010.48 842.939C1010.65 842.865 1010.82 842.757 1010.95 842.621C1011.09 842.485 1011.2 842.323 1011.27 842.145C1011.34 841.967 1011.38 841.777 1011.38 841.584V620.178C1011.38 619.789 1011.23 619.416 1010.95 619.141C1010.68 618.866 1010.3 618.711 1009.92 618.711C1009.53 618.711 1009.15 618.866 1008.88 619.141C1008.6 619.416 1008.45 619.789 1008.45 620.178V841.584C1008.45 841.777 1008.49 841.967 1008.56 842.145C1008.63 842.323 1008.74 842.485 1008.88 842.621C1009.01 842.757 1009.18 842.865 1009.35 842.939C1009.53 843.012 1009.72 843.05 1009.92 843.05Z" fill="#E6E6E6" id="id_301"></path>
<path d="M581.071 724.832H544.138C542.106 724.83 540.143 724.096 538.61 722.764C537.076 721.432 536.075 719.591 535.79 717.58C533.509 700.799 533.509 683.787 535.79 667.007C536.072 665.02 537.053 663.198 538.557 661.869C540.061 660.54 541.989 659.791 543.996 659.756C555.616 654.547 568.131 654.548 581.198 659.755C582.415 659.771 583.614 660.054 584.71 660.582C585.806 661.111 586.774 661.873 587.544 662.815C588.347 663.795 588.922 664.942 589.227 666.172C589.531 667.402 589.558 668.685 589.305 669.927C586.338 684.69 586.338 699.896 589.305 714.66C589.558 715.901 589.531 717.184 589.227 718.414C588.922 719.644 588.347 720.791 587.544 721.771C586.76 722.73 585.773 723.502 584.653 724.032C583.533 724.561 582.31 724.834 581.071 724.832Z" fill="#CA63FF" id="id_302"></path>
<path d="M577.203 679.036H546.117C545.602 679.036 545.108 678.832 544.743 678.467C544.379 678.103 544.174 677.609 544.174 677.094C544.174 676.578 544.379 676.084 544.743 675.72C545.108 675.356 545.602 675.151 546.117 675.151H577.203C577.718 675.151 578.212 675.356 578.577 675.72C578.941 676.084 579.146 676.578 579.146 677.094C579.146 677.609 578.941 678.103 578.577 678.467C578.212 678.832 577.718 679.036 577.203 679.036Z" fill="white" id="id_303"></path>
<path d="M577.203 694.578H546.117C545.602 694.578 545.108 694.374 544.743 694.009C544.379 693.645 544.174 693.151 544.174 692.636C544.174 692.12 544.379 691.626 544.743 691.262C545.108 690.898 545.602 690.693 546.117 690.693H577.203C577.718 690.693 578.212 690.898 578.577 691.262C578.941 691.626 579.146 692.12 579.146 692.636C579.146 693.151 578.941 693.645 578.577 694.009C578.212 694.374 577.718 694.578 577.203 694.578Z" fill="white" id="id_304"></path>
<path d="M577.203 710.12H546.117C545.602 710.12 545.108 709.916 544.743 709.551C544.379 709.187 544.174 708.693 544.174 708.178C544.174 707.662 544.379 707.168 544.743 706.804C545.108 706.44 545.602 706.235 546.117 706.235H577.203C577.718 706.235 578.212 706.44 578.577 706.804C578.941 707.168 579.146 707.662 579.146 708.178C579.146 708.693 578.941 709.187 578.577 709.551C578.212 709.916 577.718 710.12 577.203 710.12Z" fill="white" id="id_305"></path>
<path d="M846.597 810.313H809.663C807.632 810.311 805.669 809.577 804.135 808.245C802.602 806.912 801.601 805.072 801.315 803.06C799.035 786.28 799.035 769.268 801.315 752.488C801.597 750.501 802.578 748.679 804.082 747.35C805.586 746.021 807.515 745.272 809.521 745.237C821.142 740.028 833.656 740.029 846.724 745.236C847.941 745.252 849.139 745.534 850.236 746.063C851.332 746.592 852.299 747.354 853.07 748.296C853.873 749.276 854.448 750.423 854.752 751.653C855.057 752.883 855.083 754.166 854.83 755.407C851.863 770.171 851.863 785.377 854.83 800.141C855.083 801.382 855.057 802.665 854.752 803.895C854.448 805.125 853.873 806.272 853.07 807.252C852.286 808.211 851.298 808.983 850.178 809.512C849.059 810.042 847.835 810.315 846.597 810.313Z" fill="#CA63FF" id="id_306"></path>
<path d="M842.728 764.517H811.643C811.127 764.517 810.633 764.313 810.269 763.948C809.904 763.584 809.7 763.09 809.7 762.574C809.7 762.059 809.904 761.565 810.269 761.201C810.633 760.836 811.127 760.632 811.643 760.632H842.728C843.244 760.632 843.738 760.836 844.102 761.201C844.467 761.565 844.671 762.059 844.671 762.574C844.671 763.09 844.467 763.584 844.102 763.948C843.738 764.313 843.244 764.517 842.728 764.517Z" fill="white" id="id_307"></path>
<path d="M842.728 780.059H811.643C811.127 780.059 810.633 779.855 810.269 779.49C809.904 779.126 809.7 778.632 809.7 778.116C809.7 777.601 809.904 777.107 810.269 776.743C810.633 776.378 811.127 776.174 811.643 776.174H842.728C843.244 776.174 843.738 776.378 844.102 776.743C844.467 777.107 844.671 777.601 844.671 778.116C844.671 778.632 844.467 779.126 844.102 779.49C843.738 779.855 843.244 780.059 842.728 780.059Z" fill="white" id="id_308"></path>
<path d="M959.283 724.832H922.35C920.318 724.83 918.355 724.096 916.822 722.764C915.288 721.432 914.287 719.591 914.002 717.58C911.721 700.799 911.721 683.787 914.002 667.007C914.284 665.02 915.265 663.198 916.769 661.869C918.273 660.54 920.201 659.791 922.208 659.756C933.828 654.547 946.343 654.548 959.41 659.755C960.627 659.771 961.826 660.054 962.922 660.582C964.018 661.111 964.986 661.873 965.756 662.815C966.559 663.795 967.134 664.942 967.439 666.172C967.743 667.402 967.77 668.685 967.517 669.927C964.55 684.69 964.55 699.896 967.517 714.66C967.77 715.901 967.743 717.184 967.439 718.414C967.134 719.644 966.559 720.791 965.756 721.771C964.972 722.73 963.984 723.502 962.865 724.032C961.745 724.561 960.522 724.834 959.283 724.832Z" fill="#FD6584" id="id_309"></path>
<path d="M955.415 694.578H924.329C923.814 694.578 923.32 694.374 922.955 694.009C922.591 693.645 922.386 693.151 922.386 692.636C922.386 692.12 922.591 691.626 922.955 691.262C923.32 690.898 923.814 690.693 924.329 690.693H955.415C955.93 690.693 956.424 690.898 956.789 691.262C957.153 691.626 957.358 692.12 957.358 692.636C957.358 693.151 957.153 693.645 956.789 694.009C956.424 694.374 955.93 694.578 955.415 694.578Z" fill="white" id="id_310"></path>
<path d="M955.415 710.12H924.329C923.814 710.12 923.32 709.916 922.955 709.551C922.591 709.187 922.386 708.693 922.386 708.178C922.386 707.662 922.591 707.168 922.955 706.804C923.32 706.44 923.814 706.235 924.329 706.235H955.415C955.93 706.235 956.424 706.44 956.789 706.804C957.153 707.168 957.358 707.662 957.358 708.178C957.358 708.693 957.153 709.187 956.789 709.551C956.424 709.916 955.93 710.12 955.415 710.12Z" fill="white" id="id_311"></path>
<path d="M335.859 719.116C328.511 707.856 316.513 699.007 303.151 698.259C289.789 697.512 273.73 708.89 267.136 720.598C255.072 742.014 254.914 766.572 271.529 781.467C273.785 780.702 283.171 779.604 285.464 778.866L286.919 776.239L288.714 777.836C309.247 779.884 315.567 765.925 348.422 757.123C346.501 743.81 343.208 730.376 335.859 719.116Z" fill="#2F2E41" id="id_312"></path>
<path d="M307.654 772.151C322.65 772.151 334.807 759.995 334.807 744.999C334.807 730.004 322.65 717.848 307.654 717.848C292.657 717.848 280.501 730.004 280.501 744.999C280.501 759.995 292.657 772.151 307.654 772.151Z" fill="#FFB7B7" id="id_313"></path>
<path d="M337.741 795.447L322.203 786.125L291.127 783.017L263.66 797.003L263.935 839.728L281.36 884.041L349.244 898.031L357.164 859.088C357.164 859.088 377.363 831.959 355.61 816.422L337.741 795.447Z" fill="#CA63FF" id="id_314"></path>
<path d="M317.806 703.765C311.922 702.116 305.703 702.077 299.8 703.653C293.896 705.23 288.525 708.363 284.247 712.726C279.969 717.089 276.942 722.52 275.482 728.454C274.022 734.387 274.183 740.603 275.948 746.452C292.485 747.772 308.832 746.228 321.717 734.528L322.864 724.493L327.566 732.891C332.308 731.557 337.058 730.215 341.814 728.864C340.359 722.945 337.376 717.512 333.163 713.108C328.95 708.703 323.654 705.482 317.806 703.765Z" fill="#2F2E41" id="id_315"></path>
<path d="M271.229 979.918C269.752 979.008 268.493 977.786 267.54 976.338C266.587 974.889 265.963 973.25 265.712 971.534C265.462 969.818 265.59 968.068 266.089 966.408C266.587 964.747 267.444 963.216 268.599 961.922L258.579 854.363L284.297 856.349L286.059 961.452C288.104 963.535 289.314 966.296 289.459 969.212C289.604 972.128 288.674 974.995 286.846 977.272C285.018 979.548 282.419 981.074 279.54 981.562C276.662 982.05 273.705 981.465 271.229 979.918H271.229Z" fill="#FFB6B6" id="id_316"></path>
<path d="M264.612 797.432C264.612 797.432 258.412 796.525 259.13 809.78C259.705 820.392 256.973 885.802 261.642 899.799C259.881 900.884 258.531 902.523 257.804 904.46C257.078 906.396 257.016 908.519 257.629 910.494L287.625 904.101C291.119 898.095 290.395 891.929 287.856 890.929L288.005 871.735L294.634 808.465L269.105 798.008L264.612 797.432Z" fill="#CA63FF" id="id_317"></path>
<path d="M417.917 989.87C417.113 988.89 416.539 987.743 416.234 986.513C415.929 985.283 415.903 984 416.156 982.758C419.123 967.995 419.123 952.789 416.156 938.025C415.903 936.784 415.929 935.501 416.234 934.271C416.539 933.041 417.113 931.894 417.917 930.914C418.687 929.972 419.654 929.21 420.751 928.681C421.847 928.152 423.046 927.87 424.263 927.854C437.33 922.647 449.844 922.646 461.465 927.854C463.472 927.89 465.4 928.639 466.904 929.968C468.408 931.297 469.389 933.119 469.671 935.106C471.951 951.886 471.951 968.898 469.671 985.678C469.386 987.689 468.384 989.53 466.851 990.863C465.317 992.195 463.355 992.929 461.323 992.931H424.39C423.151 992.933 421.928 992.66 420.808 992.13C419.688 991.601 418.7 990.829 417.917 989.87Z" fill="#CA63FF" id="id_318"></path>
<path d="M428.258 947.135H459.344C459.859 947.135 460.353 946.93 460.717 946.566C461.082 946.202 461.286 945.708 461.286 945.192C461.286 944.677 461.082 944.183 460.717 943.819C460.353 943.454 459.859 943.25 459.344 943.25H428.258C427.742 943.25 427.248 943.454 426.884 943.819C426.52 944.183 426.315 944.677 426.315 945.192C426.315 945.708 426.52 946.202 426.884 946.566C427.248 946.93 427.742 947.135 428.258 947.135Z" fill="white" id="id_319"></path>
<path d="M428.258 962.677H459.344C459.859 962.677 460.353 962.472 460.717 962.108C461.082 961.744 461.286 961.25 461.286 960.734C461.286 960.219 461.082 959.725 460.717 959.361C460.353 958.996 459.859 958.792 459.344 958.792H428.258C427.742 958.792 427.248 958.996 426.884 959.361C426.52 959.725 426.315 960.219 426.315 960.734C426.315 961.25 426.52 961.744 426.884 962.108C427.248 962.472 427.742 962.677 428.258 962.677Z" fill="white" id="id_320"></path>
<path d="M428.258 978.219H459.344C459.859 978.219 460.353 978.014 460.717 977.65C461.082 977.286 461.286 976.791 461.286 976.276C461.286 975.761 461.082 975.267 460.717 974.903C460.353 974.538 459.859 974.333 459.344 974.333H428.258C427.742 974.333 427.248 974.538 426.884 974.903C426.52 975.267 426.315 975.761 426.315 976.276C426.315 976.791 426.52 977.286 426.884 977.65C427.248 978.014 427.742 978.219 428.258 978.219Z" fill="white" id="id_321"></path>
<path d="M1282.68 1287.48H1266.75L1259.17 1226.04L1282.68 1226.04L1282.68 1287.48Z" fill="#FFB6B6" id="id_322"></path>
<path d="M1286.74 1302.92L1235.37 1302.92V1302.27C1235.37 1296.97 1237.48 1291.88 1241.23 1288.13C1244.98 1284.38 1250.06 1282.28 1255.37 1282.28H1255.37L1264.75 1275.16L1282.26 1282.28L1286.74 1282.28L1286.74 1302.92Z" fill="#49d159" id="id_323"></path>
<path d="M1208.67 1287.48H1192.74L1185.16 1226.04L1208.67 1226.04L1208.67 1287.48Z" fill="#FFB6B6" id="id_324"></path>
<path d="M1212.73 1302.92L1161.36 1302.92V1302.27C1161.36 1296.97 1163.47 1291.88 1167.22 1288.13C1170.97 1284.38 1176.05 1282.28 1181.36 1282.28H1181.36L1190.74 1275.16L1208.25 1282.28L1212.73 1282.28L1212.73 1302.92Z" fill="#37b846" id="id_325"></path>
<path d="M1295.36 894.099L1274.3 958.853L1207.91 956.677L1228.31 894.099H1295.36Z" fill="#36b545" id="id_326"></path>
<path d="M1195.93 951.235L1321.1 954.5L1318.92 1015.45C1318.92 1015.45 1321.1 1031.77 1316.74 1036.12C1312.39 1040.48 1310.21 1040.48 1312.39 1048.1C1314.57 1055.71 1303.07 1068.16 1304.46 1069.55C1305.86 1070.95 1309.13 1078.57 1309.13 1078.57L1298.24 1140.6C1298.24 1140.6 1290.62 1248.35 1288.45 1250.52C1286.27 1252.7 1284.09 1250.52 1286.27 1255.97C1288.45 1261.41 1290.62 1259.23 1288.45 1261.41C1286.52 1263.49 1284.7 1265.67 1283 1267.94H1256.69C1256.69 1267.94 1254.71 1257.05 1254.71 1255.97C1254.71 1254.88 1252.53 1248.35 1252.53 1247.26C1252.53 1246.17 1254.45 1244.25 1254.45 1244.25C1255.12 1242.03 1255.57 1239.76 1255.8 1237.46C1255.8 1235.29 1262.33 1151.49 1262.33 1151.49L1249.26 1042.65L1217.7 1149.31C1217.7 1149.31 1217.7 1242.91 1215.52 1245.08C1213.35 1247.26 1213.35 1246.17 1214.44 1250.52C1215.52 1254.88 1219.88 1253.79 1216.61 1257.05C1213.35 1260.32 1212.26 1254.88 1213.35 1260.32L1214.44 1265.76L1181.78 1266.23C1181.78 1266.23 1177.43 1257.05 1179.61 1253.79C1181.78 1250.52 1181.65 1251.42 1179 1246.07C1176.34 1240.73 1175.25 1239.64 1176.34 1238.55C1177.43 1237.46 1177.43 1231.68 1177.43 1231.68L1182.87 1127.54C1182.87 1127.54 1183.96 1017.62 1183.96 1014.36C1184.04 1012.68 1183.73 1011 1183.06 1009.46V1005.03L1187.23 989.327L1195.93 951.235Z" fill="#38b547" id="id_327"></path>
<path d="M1207.36 792.884L1245.46 778.736L1308.58 783.089L1323.2 789.91C1328.34 792.309 1332.52 796.367 1335.08 801.431C1337.64 806.496 1338.42 812.272 1337.29 817.833L1318.38 911.511L1323.27 956.584C1323.27 956.584 1243.82 1016.53 1181.78 998.033C1181.78 998.033 1182.87 980.62 1183.96 974.09C1185.05 967.56 1187.23 967.56 1188.31 964.295C1189.4 961.03 1191.58 964.295 1189.4 957.765C1187.23 951.235 1206.82 905.526 1206.82 905.526L1207.36 792.884Z" fill="#E6E6E6" id="id_328"></path>
<path d="M1267.57 801.165L1298.63 782.403L1288.45 764.044H1255.46L1242.39 779.875L1267.57 801.165Z" fill="#E6E6E6" id="id_329"></path>
<path d="M1278.26 955.426C1280.03 955.528 1281.81 955.24 1283.46 954.582C1285.11 953.925 1286.59 952.913 1287.81 951.619C1289.03 950.325 1289.95 948.779 1290.5 947.092C1291.06 945.404 1291.24 943.615 1291.03 941.851L1329.86 922.952L1310.55 911.512L1276.63 931.213C1273.69 931.763 1271.06 933.373 1269.22 935.737C1267.39 938.102 1266.49 941.056 1266.69 944.041C1266.89 947.025 1268.18 949.833 1270.31 951.931C1272.44 954.029 1275.27 955.273 1278.26 955.426Z" fill="#FFB6B6" id="id_330"></path>
<path d="M1293.52 947.58L1286.75 922.771L1323.62 873.926C1311.69 859.537 1307.5 838.291 1310.44 807.138C1309.79 803.778 1310.44 800.296 1312.25 797.394C1314.07 794.492 1316.92 792.387 1320.22 791.503C1323.53 790.619 1327.05 791.022 1330.07 792.631C1333.09 794.24 1335.39 796.935 1336.5 800.172C1344.84 824.505 1359.36 876.872 1357.47 879.708C1355.29 882.974 1354.54 884.424 1357.97 887.543C1362.03 891.243 1359.88 907.007 1358.02 909.268C1356.33 911.329 1293.52 947.58 1293.52 947.58Z" fill="#E6E6E6" id="id_331"></path>
<path d="M1098.31 916.893C1099.96 917.535 1101.74 917.805 1103.51 917.685C1105.29 917.566 1107.01 917.059 1108.57 916.201C1110.12 915.342 1111.47 914.153 1112.52 912.717C1113.57 911.281 1114.28 909.633 1114.62 907.89L1157.39 901.816L1142.52 885.004L1104.19 893.349C1101.22 892.971 1098.22 893.695 1095.75 895.383C1093.28 897.071 1091.52 899.606 1090.79 902.508C1090.07 905.41 1090.43 908.478 1091.82 911.129C1093.2 913.78 1095.51 915.831 1098.31 916.893Z" fill="#FFB6B6" id="id_332"></path>
<path d="M1116.66 913.318L1123.15 888.436L1176.91 858.151C1180.79 833.543 1183.23 825.52 1201.3 799.974C1202.41 796.736 1204.71 794.039 1207.72 792.427C1210.74 790.815 1214.26 790.409 1217.57 791.289C1220.88 792.17 1223.73 794.272 1225.55 797.172C1227.36 800.072 1228.01 803.554 1227.37 806.914C1222.48 832.169 1200.36 899.854 1197.63 900.892C1195.14 901.838 1116.66 913.318 1116.66 913.318Z" fill="#E6E6E6" id="id_333"></path>
<path d="M1271.58 752.616C1290.21 752.616 1305.32 737.511 1305.32 718.878C1305.32 700.245 1290.21 685.14 1271.58 685.14C1252.94 685.14 1237.84 700.245 1237.84 718.878C1237.84 737.511 1252.94 752.616 1271.58 752.616Z" fill="#FFB6B6" id="id_334"></path>
<path d="M1235.85 694.403C1236.74 686.335 1248.4 678.266 1269.02 672.886C1289.64 667.507 1300.4 690.817 1300.4 690.817C1314.75 697.99 1306.23 736.093 1301.75 732.507C1301.7 732.471 1301.66 732.436 1301.61 732.402C1298.69 730.249 1296.24 727.522 1294.4 724.389C1292.57 721.256 1291.39 717.782 1290.94 714.179L1289.91 704.893C1285.19 708.512 1279.87 711.576 1274.15 710.665L1281.15 703.781C1274.52 706.664 1267.89 709.547 1261.26 712.431L1267.85 703.375L1267.53 703.069C1264.45 705.667 1260.92 707.67 1257.1 708.975C1252.75 710.221 1247.54 709.547 1244.56 706.143C1243.76 705.204 1243.16 704.113 1242.78 702.936C1237.37 706.641 1236.3 714.576 1236.3 714.576C1236.3 714.576 1234.95 702.472 1235.85 694.403Z" fill="#2F2E41" id="id_335"></path>
<path d="M1100.46 938.804H1063.53C1061.5 938.802 1059.54 938.068 1058 936.736C1056.47 935.403 1055.47 933.563 1055.18 931.551C1052.9 914.771 1052.9 897.759 1055.18 880.979C1055.47 878.992 1056.45 877.17 1057.95 875.841C1059.45 874.512 1061.38 873.763 1063.39 873.727C1075.01 868.519 1087.52 868.52 1100.59 873.727C1101.81 873.743 1103.01 874.025 1104.1 874.554C1105.2 875.083 1106.17 875.845 1106.94 876.787C1107.74 877.767 1108.32 878.914 1108.62 880.144C1108.93 881.374 1108.95 882.657 1108.7 883.898C1105.73 898.662 1105.73 913.868 1108.7 928.632C1108.95 929.873 1108.93 931.156 1108.62 932.386C1108.32 933.616 1107.74 934.763 1106.94 935.743C1106.15 936.702 1105.17 937.474 1104.05 938.003C1102.93 938.533 1101.7 938.806 1100.46 938.804Z" fill="#3F3D56" id="id_336"></path>
<path d="M1096.6 893.008H1065.51C1065 893.008 1064.5 892.804 1064.14 892.439C1063.77 892.075 1063.57 891.581 1063.57 891.066C1063.57 890.55 1063.77 890.056 1064.14 889.692C1064.5 889.327 1065 889.123 1065.51 889.123H1096.6C1097.11 889.123 1097.61 889.327 1097.97 889.692C1098.33 890.056 1098.54 890.55 1098.54 891.066C1098.54 891.581 1098.33 892.075 1097.97 892.439C1097.61 892.804 1097.11 893.008 1096.6 893.008Z" fill="white" id="id_337"></path>
<path d="M1096.6 908.55H1065.51C1065 908.55 1064.5 908.346 1064.14 907.981C1063.77 907.617 1063.57 907.123 1063.57 906.608C1063.57 906.092 1063.77 905.598 1064.14 905.234C1064.5 904.869 1065 904.665 1065.51 904.665H1096.6C1097.11 904.665 1097.61 904.869 1097.97 905.234C1098.33 905.598 1098.54 906.092 1098.54 906.608C1098.54 907.123 1098.33 907.617 1097.97 907.981C1097.61 908.346 1097.11 908.55 1096.6 908.55Z" fill="white" id="id_338"></path>
<path d="M1096.6 924.092H1065.51C1065 924.092 1064.5 923.887 1064.14 923.523C1063.77 923.159 1063.57 922.665 1063.57 922.149C1063.57 921.634 1063.77 921.14 1064.14 920.776C1064.5 920.411 1065 920.207 1065.51 920.207H1096.6C1097.11 920.207 1097.61 920.411 1097.97 920.776C1098.33 921.14 1098.54 921.634 1098.54 922.149C1098.54 922.665 1098.33 923.159 1097.97 923.523C1097.61 923.887 1097.11 924.092 1096.6 924.092Z" fill="white" id="id_339"></path>
<path d="M942.466 627.343C956.058 627.343 967.076 616.325 967.076 602.734C967.076 589.144 956.058 578.126 942.466 578.126C928.875 578.126 917.857 589.144 917.857 602.734C917.857 616.325 928.875 627.343 942.466 627.343Z" fill="#E6E6E6" id="id_340"></path>
<path d="M955.1 592.479C954.73 592.125 954.238 591.928 953.726 591.928C953.214 591.928 952.722 592.125 952.352 592.479C947.13 596.643 942.44 601.433 938.387 606.742C937.392 604.817 936.397 602.892 935.402 600.966C934.253 598.744 930.899 600.707 932.047 602.928C933.502 605.743 934.957 608.559 936.413 611.375C936.588 611.663 936.835 611.9 937.129 612.065C937.422 612.23 937.754 612.316 938.09 612.316C938.427 612.316 938.758 612.23 939.052 612.065C939.346 611.9 939.593 611.663 939.768 611.375C944.087 605.292 949.249 599.855 955.1 595.226C955.461 594.86 955.664 594.367 955.664 593.852C955.664 593.338 955.461 592.844 955.1 592.479Z" fill="white" id="id_341"></path>
<path d="M822.009 627.343C835.6 627.343 846.618 616.325 846.618 602.734C846.618 589.144 835.6 578.126 822.009 578.126C808.417 578.126 797.399 589.144 797.399 602.734C797.399 616.325 808.417 627.343 822.009 627.343Z" fill="#E6E6E6" id="id_342"></path>
<path d="M834.642 592.479C834.272 592.125 833.78 591.928 833.268 591.928C832.756 591.928 832.264 592.125 831.894 592.479C826.672 596.643 821.982 601.433 817.929 606.742C816.934 604.817 815.939 602.892 814.944 600.966C813.796 598.744 810.441 600.707 811.589 602.928C813.044 605.743 814.5 608.559 815.955 611.375C816.13 611.663 816.377 611.9 816.671 612.065C816.964 612.23 817.296 612.316 817.633 612.316C817.969 612.316 818.301 612.23 818.594 612.065C818.888 611.9 819.135 611.663 819.31 611.375C823.629 605.292 828.791 599.855 834.642 595.226C835.003 594.86 835.206 594.367 835.206 593.852C835.206 593.338 835.003 592.844 834.642 592.479Z" fill="white" id="id_343"></path>
<path d="M568.14 624.752C581.732 624.752 592.75 613.735 592.75 600.144C592.75 586.553 581.732 575.536 568.14 575.536C554.549 575.536 543.531 586.553 543.531 600.144C543.531 613.735 554.549 624.752 568.14 624.752Z" fill="#E6E6E6" id="id_344"></path>
<path d="M580.773 589.888C580.403 589.535 579.911 589.338 579.4 589.338C578.888 589.338 578.396 589.535 578.026 589.888C572.804 594.053 568.114 598.843 564.061 604.152C563.066 602.226 562.071 600.301 561.076 598.376C559.927 596.154 556.573 598.117 557.721 600.337C559.176 603.153 560.631 605.969 562.087 608.785C562.262 609.072 562.509 609.31 562.802 609.475C563.096 609.639 563.427 609.726 563.764 609.726C564.101 609.726 564.432 609.639 564.726 609.475C565.02 609.31 565.266 609.072 565.442 608.785C569.761 602.702 574.923 597.265 580.773 592.636C581.135 592.27 581.338 591.776 581.338 591.262C581.338 590.748 581.135 590.254 580.773 589.888Z" fill="white" id="id_345"></path>
<path d="M274.119 725.775C283.419 725.775 290.958 718.237 290.958 708.938C290.958 699.639 283.419 692.101 274.119 692.101C264.82 692.101 257.281 699.639 257.281 708.938C257.281 718.237 264.82 725.775 274.119 725.775Z" fill="#2F2E41" id="id_346"></path>
<path d="M466.127 1302.46C466.128 1302.66 466.088 1302.86 466.011 1303.05C465.934 1303.24 465.82 1303.41 465.677 1303.55C465.534 1303.69 465.364 1303.81 465.176 1303.88C464.989 1303.96 464.788 1304 464.586 1304H101.541C101.133 1304 100.741 1303.84 100.451 1303.55C100.162 1303.26 100 1302.87 100 1302.46C100 1302.05 100.162 1301.66 100.451 1301.37C100.741 1301.08 101.133 1300.92 101.541 1300.92H464.586C464.789 1300.92 464.989 1300.96 465.177 1301.03C465.364 1301.11 465.534 1301.22 465.677 1301.37C465.82 1301.51 465.934 1301.68 466.011 1301.87C466.088 1302.06 466.128 1302.26 466.127 1302.46Z" fill="#CCCCCC" id="id_347"></path>
<path d="M1400 1302.46C1400 1302.66 1399.96 1302.86 1399.88 1303.05C1399.81 1303.24 1399.69 1303.41 1399.55 1303.55C1399.41 1303.69 1399.24 1303.81 1399.05 1303.88C1398.86 1303.96 1398.66 1304 1398.46 1304H1035.41C1035.01 1304 1034.61 1303.84 1034.32 1303.55C1034.04 1303.26 1033.87 1302.87 1033.87 1302.46C1033.87 1302.05 1034.04 1301.66 1034.32 1301.37C1034.61 1301.08 1035.01 1300.92 1035.41 1300.92H1398.46C1398.66 1300.92 1398.86 1300.96 1399.05 1301.03C1399.24 1301.11 1399.41 1301.22 1399.55 1301.37C1399.69 1301.51 1399.81 1301.68 1399.88 1301.87C1399.96 1302.06 1400 1302.26 1400 1302.46Z" fill="#CCCCCC" id="id_348"></path>
<path d="M269.048 692.05C266.134 691.239 263.102 692.597 260.382 693.92L250.706 698.629C257.404 699.217 264.103 699.804 270.802 700.392L271.542 698.999C273.861 697.056 271.963 692.86 269.048 692.05Z" fill="#2F2E41" id="id_349"></path>
<circle cx="301" cy="753" r="3" fill="#2F2E41" id="id_350"></circle>
<circle cx="322" cy="744" r="3" fill="#2F2E41" id="id_351"></circle>
<circle cx="1245" cy="725" r="3" fill="#2F2E41" id="id_352"></circle>
<circle cx="1268" cy="725" r="3" fill="#2F2E41" id="id_353"></circle>
</g>
<path d="M754 290.463C754 292 753.982 293.534 753.946 295.066C753.93 296.067 753.899 297.068 753.86 298.07C753.852 298.357 753.845 298.636 753.829 298.924C753.806 299.475 753.783 300.018 753.759 300.553C753.589 304.132 753.325 307.684 752.967 311.21C752.952 311.381 752.936 311.552 752.921 311.715C752.882 312.064 752.851 312.413 752.804 312.763C752.696 313.811 752.579 314.858 752.447 315.891C752.362 316.589 752.277 317.28 752.183 317.979C752.137 318.312 752.09 318.646 752.051 318.972C751.997 319.337 751.95 319.694 751.896 320.051C751.873 320.206 751.85 320.362 751.826 320.525C751.749 321.052 751.671 321.588 751.586 322.116C751.485 322.807 751.376 323.49 751.26 324.18C751.151 324.863 751.034 325.546 750.91 326.229C750.794 326.912 750.67 327.595 750.545 328.279C750.421 328.969 750.289 329.652 750.157 330.335C749.49 333.72 748.744 337.075 747.921 340.402C747.595 341.699 747.262 342.992 746.92 344.283C746.353 346.379 745.755 348.464 745.127 350.539C744.948 351.114 744.77 351.688 744.591 352.255C744.389 352.907 744.18 353.559 743.97 354.203C743.76 354.855 743.551 355.499 743.333 356.143C743.116 356.788 742.899 357.432 742.673 358.076C742.456 358.712 742.231 359.357 741.998 359.993C741.773 360.637 741.54 361.274 741.307 361.91C741.067 362.547 740.834 363.183 740.593 363.812C740.112 365.085 739.617 366.345 739.11 367.592C738.862 368.221 738.606 368.849 738.342 369.47C737.309 371.97 736.228 374.44 735.097 376.883C734.848 377.426 734.6 377.969 734.344 378.505C734.173 378.862 734.01 379.211 733.839 379.568C733.552 380.158 733.272 380.74 732.985 381.322C732.698 381.912 732.403 382.51 732.1 383.108C731.502 384.287 730.894 385.465 730.276 386.639C729.663 387.811 729.034 388.983 728.389 390.14C727.745 391.296 727.093 392.453 726.433 393.594C726.099 394.168 725.765 394.743 725.432 395.309C724.089 397.583 722.701 399.832 721.271 402.054C719.85 404.266 718.383 406.452 716.869 408.613C716.116 409.692 715.347 410.771 714.571 411.834C714.26 412.261 713.95 412.68 713.639 413.099C713.259 413.627 712.863 414.147 712.467 414.667C695.643 437.041 674.44 455.758 650.15 469.679C625.861 483.6 598.992 492.433 571.179 495.641C543.366 498.849 515.191 496.364 488.369 488.339C461.548 480.313 436.64 466.915 415.162 448.959C412.895 447.065 410.669 445.124 408.485 443.137C394.471 430.377 382.27 415.758 372.224 399.687C370.974 397.677 369.747 395.643 368.567 393.594C350.453 362.245 340.943 326.668 341 290.463C341 176.435 433.452 84 547.5 84C581.817 83.9792 615.598 92.517 645.783 108.84C675.968 125.163 701.604 148.756 720.37 177.483C720.712 178.003 721.053 178.531 721.395 179.058C740.053 208.091 751.088 241.359 753.48 275.786C753.829 280.629 754.003 285.522 754 290.463Z" fill="#F2F2F2" id="id_354"></path>
<path d="M721 179H435.767C435.562 178.997 435.367 178.943 435.223 178.849C435.08 178.756 435 178.631 435 178.5C435 178.369 435.08 178.244 435.223 178.151C435.367 178.057 435.562 178.003 435.767 178H719.978C720.319 178.33 720.659 178.665 721 179Z" fill="#CACACA" id="id_355"></path>
<path d="M452.5 168C457.194 168 461 164.194 461 159.5C461 154.806 457.194 151 452.5 151C447.806 151 444 154.806 444 159.5C444 164.194 447.806 168 452.5 168Z" fill="#3F3D56" id="id_356"></path>
<path d="M482 168C486.418 168 490 164.194 490 159.5C490 154.806 486.418 151 482 151C477.582 151 474 154.806 474 159.5C474 164.194 477.582 168 482 168Z" fill="#3F3D56" id="id_357"></path>
<path d="M511.5 168C516.194 168 520 164.194 520 159.5C520 154.806 516.194 151 511.5 151C506.806 151 503 154.806 503 159.5C503 164.194 506.806 168 511.5 168Z" fill="#3F3D56" id="id_358"></path>
<path d="M753.479 276C746.01 279.384 739.317 284.851 733.472 292.371C726.718 301.067 719.482 307.193 712.09 311.344C711.74 311.537 711.398 311.723 711.048 311.909C704.422 315.467 697.155 317.686 689.666 318.437C687.403 318.665 685.131 318.773 682.857 318.763C681.909 318.755 680.96 318.732 680.02 318.685C677.789 318.577 675.582 318.36 673.413 318.05C660.961 316.285 649.699 311.514 641.359 307.03C629.932 300.751 617.528 296.427 604.664 294.237C602.364 293.858 600.068 293.561 597.778 293.347C596.83 293.254 595.889 293.184 594.949 293.122C592.64 292.967 590.334 292.895 588.031 292.905C586.849 292.913 585.676 292.936 584.494 292.983C564.643 293.757 538.752 299.395 515.536 319.088C515.225 319.351 514.922 319.615 514.611 319.878C514.323 320.126 514.036 320.381 513.748 320.637C510.073 323.891 506.61 327.375 503.379 331.068C499.675 335.297 496.248 339.759 493.119 344.426C489.404 349.891 485.063 354.906 480.186 359.372C472.971 366.006 467.194 374.038 463.208 382.976C459.222 391.915 457.112 401.57 457.008 411.351V411.738C457 412.156 457 412.582 457 413H713.598C713.909 412.582 714.219 412.164 714.523 411.738C715.3 410.677 716.069 409.6 716.823 408.524C718.339 406.371 719.808 404.19 721.23 401.98C722.668 399.765 724.057 397.522 725.397 395.251C725.731 394.685 726.065 394.112 726.399 393.539C727.06 392.401 727.713 391.247 728.358 390.093C729.003 388.939 729.633 387.77 730.247 386.601C730.868 385.431 731.477 384.257 732.073 383.077C732.376 382.481 732.672 381.884 732.959 381.296C733.247 380.715 733.527 380.134 733.814 379.546C733.985 379.189 734.148 378.841 734.319 378.485C734.576 377.95 734.825 377.408 735.073 376.866C736.208 374.427 737.291 371.962 738.322 369.471C738.587 368.851 738.843 368.224 739.092 367.597C739.597 366.35 740.092 365.093 740.576 363.825C740.817 363.198 741.051 362.563 741.292 361.928C741.525 361.293 741.758 360.658 741.983 360.015C742.216 359.38 742.442 358.737 742.66 358.102C742.885 357.46 743.103 356.817 743.32 356.174C743.538 355.531 743.748 354.889 743.958 354.238C744.167 353.595 744.377 352.945 744.579 352.294C744.758 351.729 744.937 351.156 745.116 350.583C745.745 348.515 746.344 346.435 746.911 344.341C747.253 343.056 747.587 341.765 747.914 340.469C748.738 337.155 749.484 333.807 750.152 330.425C750.284 329.744 750.417 329.062 750.541 328.373C750.665 327.692 750.79 327.01 750.906 326.329C751.031 325.647 751.147 324.966 751.256 324.284C751.373 323.595 751.481 322.914 751.582 322.224C751.668 321.698 751.746 321.163 751.823 320.637C751.847 320.474 751.87 320.319 751.893 320.164C751.948 319.8 751.994 319.444 752.041 319.088C752.088 318.755 752.134 318.422 752.181 318.097C752.274 317.4 752.36 316.711 752.445 316.014C752.577 314.984 752.694 313.938 752.803 312.893H752.811C752.842 312.544 752.88 312.196 752.919 311.847C752.935 311.685 752.95 311.514 752.966 311.344C753.324 307.828 753.588 304.284 753.759 300.711C753.782 300.177 753.805 299.635 753.829 299.085C753.844 298.799 753.852 298.52 753.86 298.233C753.899 297.234 753.93 296.235 753.945 295.236C753.984 293.711 754.002 292.18 754 290.644C754 285.719 753.826 280.837 753.479 276Z" fill="#3ab348" id="id_359"></path>
<path d="M513 328H510V411H513V328Z" fill="#3F3D56" id="id_360"></path>
<path d="M598 289H595V411H598V289Z" fill="#3F3D56" id="id_361"></path>
<path d="M683 315H680V411H683V315Z" fill="#3F3D56" id="id_362"></path>
<path d="M596.5 300C601.194 300 605 295.971 605 291C605 286.029 601.194 282 596.5 282C591.806 282 588 286.029 588 291C588 295.971 591.806 300 596.5 300Z" fill="#3F3D56" id="id_363"></path>
<path d="M681.5 324C686.194 324 690 319.971 690 315C690 310.029 686.194 306 681.5 306C676.806 306 673 310.029 673 315C673 319.971 676.806 324 681.5 324Z" fill="#3F3D56" id="id_364"></path>
<path d="M510.5 330C515.194 330 519 325.971 519 321C519 316.029 515.194 312 510.5 312C505.806 312 502 316.029 502 321C502 325.971 505.806 330 510.5 330Z" fill="#3F3D56" id="id_365"></path>
<path d="M715 412C714.689 412.452 714.378 412.896 714.067 413.34C713.685 413.899 713.289 414.449 712.892 415H457V412H715Z" fill="#3F3D56" id="id_366"></path>
<path d="M516 319H511V321H516V319Z" fill="#3F3D56" id="id_367"></path>
<path d="M525 319V321H534.422V319H525ZM543.845 319V321H553.259V319H543.845ZM562.682 319V321H572.104V319H562.682ZM581.519 319V321H590.941V319H581.519ZM600.363 319V321H609.778V319H600.363ZM619.2 319V321H628.623V319H619.2ZM638.037 319V321H647.46V319H638.037ZM656.882 319V321H666.297V319H656.882ZM675.719 319V321H685.142V319H675.719ZM694.556 319V321H703.979V319H694.556ZM713.393 319V321H722.816V319H713.393ZM732.238 319V321H741.652V319H732.238ZM751.075 319V321H751.775C751.798 320.79 751.821 320.59 751.845 320.39C751.899 319.93 751.946 319.47 752 319H751.075Z" fill="#3F3D56" id="id_368"></path>
<path d="M597 288H592V290H597V288Z" fill="#3F3D56" id="id_369"></path>
<path d="M606 288V290H615.403V288H606ZM624.805 288V290H634.2V288H624.805ZM643.603 288V290H653.005V288H643.603ZM662.4 288V290H671.803V288H662.4ZM681.205 288V290H690.6V288H681.205ZM700.003 288V290H709.405V288H700.003ZM718.8 288V290H728.203V288H718.8ZM737.605 288V290H747V288H737.605Z" fill="#3F3D56" id="id_370"></path>
<path d="M683 311H678V313H683V311Z" fill="#3F3D56" id="id_371"></path>
<path d="M692 311V313H701.458V311H692ZM710.916 311V313H720.366V311H710.916ZM729.824 311V313H739.281V311H729.824ZM748.732 311V313H752.844C752.875 312.55 752.914 312.1 752.953 311.65C752.969 311.44 752.984 311.22 753 311H748.732Z" fill="#3F3D56" id="id_372"></path>
<defs>
<clipPath id="clip0_7_4109">
<rect width="1300" height="771" fill="white" transform="translate(100 533)" id="id_373"></rect>
</clipPath>
</defs>
</svg>