<svg xmlns="http://www.w3.org/2000/svg" xmlns:xlink="http://www.w3.org/1999/xlink" width="1500" height="1500" viewBox="0 0 1500 1500">
<defs>
<clipPath id="clip-undraw_building_websites_i78t">
<rect width="1500" height="1500" id="id_101"></rect>
</clipPath>
</defs>
<g id="undraw_building_websites_i78t" clip-path="url(#clip-undraw_building_websites_i78t)">
<rect width="1500" height="1500" fill="#fff" id="id_102"></rect>
<g id="undraw_building_websites_i78t-2" data-name="undraw_building_websites_i78t">
<circle id="Ellipse_83" data-name="Ellipse 83" cx="8.278" cy="8.278" r="8.278" transform="translate(240.934 96.086)" fill="#f2f2f2"></circle>
<path id="Path_1337" data-name="Path 1337" d="M735.1,160.51c12.619,26.854-14.12,34.46-44.75,48.853s-53.552,30.123-66.171,3.269-22.857-80.153,20.474-100.515C689.481,91.054,722.485,133.656,735.1,160.51Z" transform="translate(126.672 88.539)"></path>
<circle id="Ellipse_273" data-name="Ellipse 273" cx="41.235" cy="41.235" r="41.235" transform="translate(758.048 219.391)" fill="#c95636"></circle>
<path id="Path_1338" data-name="Path 1338" d="M829.447,276.346c-1.427-1.864-2.854-3.693-4.3-5.473q-2.795-3.475-5.624-6.732c-21.372-24.663-44.1-40.192-69.135-41.854h-.034l-.37-.034-49.879,48.62-16.957,16.52.37.907,9.149,22.782H852.984a394.24,394.24,0,0,0-23.537-34.736Z" transform="translate(174.12 167.146)" fill="#3ac263"></path>
<path id="Path_1339" data-name="Path 1339" d="M623.582,182.043h0l14.761-6.936-2.056-21.294,9.87,17.622,7.055-3.315-1.2-12.421,5.758,10.279,52.422-24.633h0a43.65,43.65,0,0,0-58.07-20.942l-7.6,3.57a43.651,43.651,0,0,0-20.942,58.07Z" transform="translate(130.86 95.184)"></path>
<path id="Path_1340" data-name="Path 1340" d="M1184.739,829.863H323.753a27.733,27.733,0,0,1-27.7-27.7V284.813a20.317,20.317,0,0,1,20.294-20.295H1191.8a20.669,20.669,0,0,1,20.645,20.646v517a27.733,27.733,0,0,1-27.7,27.7Z" transform="translate(-88.667 195.838)" fill="#f8eee7"></path>
<path id="Path_1341" data-name="Path 1341" d="M339.414,784.04h807.262a26.862,26.862,0,0,0,26.862-26.862v-439.1a26.862,26.862,0,0,0-26.862-26.862H339.414a26.862,26.862,0,0,0-26.862,26.862v439.1A26.862,26.862,0,0,0,339.414,784.04Z" transform="translate(-77.466 213.961)" fill="#fff"></path>
<path id="Path_1342" data-name="Path 1342" d="M1212.212,292.6H295.82V278.5a27.825,27.825,0,0,1,27.8-27.785H1184.41a27.825,27.825,0,0,1,27.8,27.785Z" transform="translate(-88.825 186.467)" fill="#ff8e28"></path>
<circle id="Ellipse_274" data-name="Ellipse 274" cx="7.191" cy="7.191" r="7.191" transform="translate(250.33 450.975)" fill="#fff"></circle>
<circle id="Ellipse_275" data-name="Ellipse 275" cx="7.191" cy="7.191" r="7.191" transform="translate(277.626 450.975)" fill="#fff"></circle>
<circle id="Ellipse_276" data-name="Ellipse 276" cx="7.191" cy="7.191" r="7.191" transform="translate(304.923 450.975)" fill="#fff"></circle>
<path id="Path_1343" data-name="Path 1343" d="M619.615,570.129H547.424a15.967,15.967,0,0,1-15.949-15.949V481.989a15.967,15.967,0,0,1,15.949-15.949h72.191a15.967,15.967,0,0,1,15.949,15.949V554.18A15.967,15.967,0,0,1,619.615,570.129ZM547.424,469.4a12.606,12.606,0,0,0-12.592,12.591V554.18a12.605,12.605,0,0,0,12.591,12.591h72.191a12.606,12.606,0,0,0,12.591-12.591V481.989A12.605,12.605,0,0,0,619.615,469.4Z" transform="translate(71.152 332.645)" fill="#f8eee7"></path>
<path id="Path_1344" data-name="Path 1344" d="M595.161,541.836h-43.65a5.042,5.042,0,0,1-5.037-5.036V483.076a5.042,5.042,0,0,1,5.037-5.037H583.14a5.049,5.049,0,0,1,3.155,1.111l12.021,9.66a5.01,5.01,0,0,1,1.882,3.926V536.8a5.042,5.042,0,0,1-5.036,5.037ZM551.511,481.4a1.681,1.681,0,0,0-1.679,1.679V536.8a1.681,1.681,0,0,0,1.679,1.679h43.65a1.681,1.681,0,0,0,1.679-1.679V492.736a1.67,1.67,0,0,0-.627-1.308l-12.023-9.661a1.682,1.682,0,0,0-1.051-.37Z" transform="translate(81.335 340.791)" fill="#f8eee7"></path>
<path id="Path_1345" data-name="Path 1345" d="M582.015,493.4H555.153a1.679,1.679,0,0,1,0-3.358h26.862a1.679,1.679,0,0,1,0,3.358Z" transform="translate(86.087 348.938)" fill="#f8eee7"></path>
<path id="Path_1346" data-name="Path 1346" d="M582.015,499.4H555.153a1.679,1.679,0,0,1,0-3.358h26.862a1.679,1.679,0,0,1,0,3.358Z" transform="translate(86.087 353.01)" fill="#f8eee7"></path>
<path id="Path_1347" data-name="Path 1347" d="M582.015,505.4H555.153a1.679,1.679,0,0,1,0-3.358h26.862a1.679,1.679,0,0,1,0,3.358Z" transform="translate(86.087 357.084)" fill="#f8eee7"></path>
<path id="Path_1348" data-name="Path 1348" d="M721.615,570.129H649.424a15.967,15.967,0,0,1-15.949-15.949V481.989a15.967,15.967,0,0,1,15.949-15.949h72.191a15.967,15.967,0,0,1,15.949,15.949V554.18A15.967,15.967,0,0,1,721.615,570.129ZM649.424,469.4a12.606,12.606,0,0,0-12.591,12.591V554.18a12.606,12.606,0,0,0,12.591,12.591h72.191a12.605,12.605,0,0,0,12.591-12.591V481.989A12.605,12.605,0,0,0,721.615,469.4Z" transform="translate(140.396 332.645)" fill="#f8eee7"></path>
<path id="Path_1349" data-name="Path 1349" d="M699.519,522.974H652.511a5.042,5.042,0,0,1-5.037-5.036V491.076a5.042,5.042,0,0,1,5.037-5.036h47.008a5.042,5.042,0,0,1,5.037,5.037v26.862a5.042,5.042,0,0,1-5.036,5.037ZM652.511,489.4a1.681,1.681,0,0,0-1.679,1.679v26.862a1.681,1.681,0,0,0,1.679,1.679h47.008a1.681,1.681,0,0,0,1.679-1.679V491.076a1.68,1.68,0,0,0-1.679-1.679Z" transform="translate(149.9 346.221)" fill="#f8eee7"></path>
<path id="Path_1350" data-name="Path 1350" d="M676.015,507.579a5.042,5.042,0,0,1-2.669-.76l-25.083-15.676a1.679,1.679,0,1,1,1.781-2.848l25.083,15.676a1.688,1.688,0,0,0,1.779,0l25.081-15.676a1.679,1.679,0,1,1,1.781,2.848l-25.081,15.676A5.045,5.045,0,0,1,676.015,507.579Z" transform="translate(149.9 347.578)" fill="#f8eee7"></path>
<path id="Path_1351" data-name="Path 1351" d="M517.615,570.129H445.424a15.967,15.967,0,0,1-15.949-15.949V481.989a15.967,15.967,0,0,1,15.949-15.949h72.191a15.967,15.967,0,0,1,15.949,15.949V554.18A15.967,15.967,0,0,1,517.615,570.129ZM445.424,469.4a12.605,12.605,0,0,0-12.591,12.591V554.18a12.605,12.605,0,0,0,12.591,12.591h72.191a12.605,12.605,0,0,0,12.591-12.591V481.989A12.605,12.605,0,0,0,517.615,469.4Z" transform="translate(1.908 332.645)" fill="#f8eee7"></path>
<path id="Path_1352" data-name="Path 1352" d="M495.519,522.974H448.511a5.042,5.042,0,0,1-5.037-5.036V491.076a5.042,5.042,0,0,1,5.037-5.036h47.008a5.042,5.042,0,0,1,5.037,5.037v26.862a5.042,5.042,0,0,1-5.037,5.037ZM448.511,489.4a1.681,1.681,0,0,0-1.679,1.679v26.862a1.681,1.681,0,0,0,1.679,1.679h47.008a1.681,1.681,0,0,0,1.679-1.679V491.076a1.681,1.681,0,0,0-1.679-1.679Z" transform="translate(11.413 346.221)" fill="#f8eee7"></path>
<path id="Path_1353" data-name="Path 1353" d="M485.056,517.883H451.27a3.357,3.357,0,0,1-2.908-5.036l10.176-17.628a3.358,3.358,0,0,1,5.816,0l6.573,11.385,3.808-6.6a3.358,3.358,0,0,1,5.816,0l7.412,12.839a3.358,3.358,0,0,1-2.909,5.036Zm0-3.358h0l-7.412-12.839-5.261,9.114a1.679,1.679,0,0,1-1.454.839h0a1.679,1.679,0,0,1-1.454-.839l-8.026-13.9L451.27,514.525Z" transform="translate(14.425 351.313)" fill="#f8eee7"></path>
<circle id="Ellipse_277" data-name="Ellipse 277" cx="3.358" cy="3.358" r="3.358" transform="translate(498.537 838.977)" fill="#f8eee7"></circle>
<path id="Path_1354" data-name="Path 1354" d="M781.107,680.253l-20.583,0-9.791-79.39,30.377,0Z" transform="translate(523.646 602.902)" fill="#c95636"></path>
<path id="Path_1355" data-name="Path 1355" d="M979.652,777.28l-66.366,0v-.839a25.831,25.831,0,0,1,25.832-25.831h0l40.534,0Z" transform="translate(330.35 525.826)"></path>
<path id="Path_1356" data-name="Path 1356" d="M831.107,680.253l-20.583,0-9.791-79.39,30.377,0Z" transform="translate(557.588 602.902)" fill="#c95636"></path>
<path id="Path_1357" data-name="Path 1357" d="M1029.651,777.28l-66.366,0v-.839a25.831,25.831,0,0,1,25.832-25.831h0l40.534,0Z" transform="translate(364.293 525.826)"></path>
<path id="Path_1358" data-name="Path 1358" d="M1041.677,857.5l-19.063-5.8a7.543,7.543,0,0,1-5.315-6.435L999.527,676.832a.805.805,0,0,0-.8-.751.788.788,0,0,0-.857.687L968.1,839.952A7.556,7.556,0,0,1,959.142,846l-24.363-5.019a7.582,7.582,0,0,1-6.013-7.911L946.873,565.6l122.788-13.249-18.246,298.379a7.547,7.547,0,0,1-9.74,6.768Z" transform="translate(340.849 391.238)" fill="#3ae06c"></path>
<circle id="Ellipse_278" data-name="Ellipse 278" cx="41.235" cy="41.235" r="41.235" transform="translate(1341.174 641.453)" fill="#c95636"></circle>
<path id="Path_1359" data-name="Path 1359" d="M939.433,650.634,966.056,483a63.558,63.558,0,0,1,80.594-51.036h0a63.366,63.366,0,0,1,44.66,72.631L1063.456,654.3Z" transform="translate(348.101 307.777)" fill="#ff8e28"></path>
<path id="Path_1360" data-name="Path 1360" d="M1013.407,611a16.883,16.883,0,0,0,2.933-25.72l27.527-53.306-31,3.308L991.48,585.4A16.974,16.974,0,0,0,1013.407,611Z" transform="translate(380.385 377.404)" fill="#c95636"></path>
<path id="Path_1361" data-name="Path 1361" d="M1013.122,634.823a7.565,7.565,0,0,1-4.074-1.932l-10.532-9.732a7.58,7.58,0,0,1-1.833-8.485l21.049-49.893-2.986-98.583a24.338,24.338,0,1,1,48.229,6.579l5.105,61.971a77.855,77.855,0,0,1-15.005,52.711l-32.825,44.376a7.563,7.563,0,0,1-5.364,3.029A7.477,7.477,0,0,1,1013.122,634.823Z" transform="translate(386.565 318.461)" fill="#ff8e28"></path>
<path id="Path_1362" data-name="Path 1362" d="M854.629,391.723a16.882,16.882,0,0,0,22.541,12.729l38.355,46.132,9.04-29.836-37.808-39.234a16.974,16.974,0,0,0-32.128,10.209Z" transform="translate(290.322 268.498)" fill="#c95636"></path>
<path id="Path_1363" data-name="Path 1363" d="M872.836,398.824a7.565,7.565,0,0,1,3.368-3l13.068-5.9a7.579,7.579,0,0,1,8.528,1.62l37.738,38.836,91.945,35.687a24.338,24.338,0,1,1-24.862,41.847l-59.057-19.461a77.854,77.854,0,0,1-42.689-34.369l-28.066-47.529a7.564,7.564,0,0,1-.7-6.12,7.481,7.481,0,0,1,.725-1.608Z" transform="translate(302.16 280.52)" fill="#ff8e28"></path>
<path id="Path_1364" data-name="Path 1364" d="M848.187,375.652l-1.679,53.724L815.58,483.118l25.824-59.89Z" transform="translate(567.668 450.016)" opacity="0.1"></path>
<path id="Path_1365" data-name="Path 1365" d="M1012.828,425.355a10.783,10.783,0,0,1-11.8-7.894,16.393,16.393,0,0,0-11.669-12.211c-7.564-1.728-16.809,1.832-22.352-3.9a11.143,11.143,0,0,1-2.645-9.808c1.021-5.569,5-9.776,9.34-13.141a57.185,57.185,0,0,1,31.674-11.837,113.616,113.616,0,0,1,17.831.887,78.921,78.921,0,0,1,18.239,3.333,42.939,42.939,0,0,1,26.865,31.362,49.574,49.574,0,0,1-10.169,40.512,53.225,53.225,0,0,1-20.416,15.544,7.965,7.965,0,0,1-6.054.307c-4.965-1.974-4.154-8.124-1.89-12.226,2.423-4.39,6.15-8.64,4.2-13.983a10.58,10.58,0,0,0-5.25-5.651c-4.936-2.517-10.456-1.922-15.762-1.309Z" transform="translate(364.856 265.082)"></path>
<path id="Path_1366" data-name="Path 1366" d="M1063.873,481.962H553.5a27.733,27.733,0,0,1-27.7-27.7V345.134a27.733,27.733,0,0,1,27.7-27.7h510.375a27.733,27.733,0,0,1,27.7,27.7V454.261a27.733,27.733,0,0,1-27.7,27.7Z" transform="translate(67.298 231.76)" fill="#fff"></path>
<path id="Path_1367" data-name="Path 1367" d="M1064.212,483.141H553.838A28.573,28.573,0,0,1,525.3,454.6V345.474a28.573,28.573,0,0,1,28.541-28.541h510.374a28.573,28.573,0,0,1,28.541,28.541V454.6A28.573,28.573,0,0,1,1064.212,483.141ZM553.838,320.291a25.211,25.211,0,0,0-25.183,25.183V454.6a25.211,25.211,0,0,0,25.183,25.183h510.374A25.211,25.211,0,0,0,1089.4,454.6V345.474a25.212,25.212,0,0,0-25.183-25.183Z" transform="translate(66.959 231.422)" fill="#e8cfbe"></path>
<path id="Path_1368" data-name="Path 1368" d="M976.637,444.917H590.5a27.733,27.733,0,0,1-27.7-27.7V360.134a27.733,27.733,0,0,1,27.7-27.7H976.637a27.733,27.733,0,0,1,27.7,27.7v57.081a27.732,27.732,0,0,1-27.7,27.7Z" transform="translate(92.417 241.943)" fill="#f8eee7"></path>
<circle id="Ellipse_279" data-name="Ellipse 279" cx="33.128" cy="33.128" r="33.128" transform="translate(732.882 589.839)" fill="#ff8e28"></circle>
<path id="Path_1369" data-name="Path 1369" d="M931.98,433.14l-46.761-39.218-45.953-38.541a6.716,6.716,0,0,0-8.651.017l-45.8,38.717-11.188,9.458-16.87-14.148-51.268-43a6.715,6.715,0,0,0-8.65.017l-51.1,43.194-51.905,43.875a1.679,1.679,0,0,0,1.087,2.961l106.418-.205,33.685-.065-.33.279,100.409-.194L930.9,436.1a1.679,1.679,0,0,0,1.075-2.965Z" transform="translate(113.078 250.379)" fill="#e8cfbe"></path>
<path id="Path_1370" data-name="Path 1370" d="M1187.156,769.291H864.815a1.679,1.679,0,0,1,0-3.358h322.342a1.679,1.679,0,1,1,0,3.358Z" transform="translate(296.305 536.23)" fill="#918b87"></path>
<path id="Path_1371" data-name="Path 1371" d="M853.244,290.082a18.838,18.838,0,0,0-12.172-8.562,17.3,17.3,0,0,0-2.786-.353L710.373,166.8a15.135,15.135,0,0,0-9.452-4.516,12.877,12.877,0,0,0-2.132-.067,15.2,15.2,0,0,0-10.006,25.989L737.755,230.9l80.418,70.093a20,20,0,0,0,.588,3.912,18.915,18.915,0,0,0,16.235,14.052,18.622,18.622,0,0,0,10.158-1.679,19.153,19.153,0,0,0,6.514-4.986c.184-.218.353-.42.52-.655a18.959,18.959,0,0,0,1.058-21.557Z" transform="translate(174.884 126.381)" fill="#c95636"></path>
<path id="Path_1372" data-name="Path 1372" d="M668.585,379.011l-1.192-48.452-1.007-40.209-.689-28.138-1.36-54.848a15.187,15.187,0,0,0-26.375-8.814,11.622,11.622,0,0,0-1.259,1.612,15,15,0,0,0-2.619,10.157l2.989,80.031,1.495,40.209,1.913,51.289a20.243,20.243,0,0,0-1.494,2.367,18.984,18.984,0,1,0,29.6-5.2Z" transform="translate(140.754 147.67)" fill="#c95636"></path>
<path id="Path_1373" data-name="Path 1373" d="M783.123,263.486l-11.87-32.15-19.206-52.078a26.872,26.872,0,0,0-16.705-16.251c-.3-.1-.62-.2-.923-.286a26.835,26.835,0,0,0-22.228,3.056L647.5,206.807a27.018,27.018,0,0,0-8.848,36.515,463.9,463.9,0,0,0,26.409,40.612c7.538,10.258,21.573,11.349,24.008,28.138h47.7l48.285-43.348Z" transform="translate(141.385 125.947)" fill="#ccc"></path>
<circle id="Ellipse_280" data-name="Ellipse 280" cx="38.902" cy="38.902" r="38.902" transform="translate(144.939 704.553)" fill="#c95636"></circle>
<path id="Path_1374" data-name="Path 1374" d="M377.874,418.718q.575.458,1.115.97a17.427,17.427,0,0,1-.7,25.995,16.351,16.351,0,0,1-1.366,1.03l2.633,88.887a13.534,13.534,0,0,1-9.309,13.208l-.16.034-72.172,7.686a14.939,14.939,0,1,1-2.891-29.738l51.448-4.531,8.9-76.978a16.57,16.57,0,0,1-1.631-1.662,17.427,17.427,0,0,1,24.138-24.9Z" transform="translate(-98.527 297.959)" fill="#c95636"></path>
<path id="Path_1375" data-name="Path 1375" d="M139.329,679.46h19.419l9.237-74.9h-28.66Z" transform="translate(108.583 605.414)" fill="#c95636"></path>
<path id="Path_1376" data-name="Path 1376" d="M317.242,751.859h38.243a24.37,24.37,0,0,1,24.37,24.371v.791l-62.612,0Z" transform="translate(-74.282 526.676)"></path>
<path id="Path_1377" data-name="Path 1377" d="M24.366,659.2l16.685,9.934L87.308,609.51,62.683,594.849Z" transform="translate(30.541 598.821)" fill="#c95636"></path>
<path id="Path_1378" data-name="Path 1378" d="M209.832,734.889l32.858,19.564h0a24.37,24.37,0,0,1,8.471,33.408l-.405.681-53.8-32.032Z" transform="translate(-155.938 515.156)"></path>
<path id="Path_1379" data-name="Path 1379" d="M417.792,884.289H396.048a7.114,7.114,0,0,1-7.087-6.374L367.04,671.855a2.376,2.376,0,0,0-4.528-.727L322.965,758.7,252.95,872.863a7.162,7.162,0,0,1-8.946,2.8l-27.97-12.306a7.13,7.13,0,0,1-3.248-10.181L277.148,745.4l19.74-90.8c-6.208-39.378,20.407-97.921,20.676-98.509l.132-.286,73.312-28.654.368.45c28.912,94.879,46.53,196.985,33.521,350.157A7.176,7.176,0,0,1,417.792,884.289Z" transform="translate(-145.878 374.131)" fill="#3ad167"></path>
<path id="Path_1380" data-name="Path 1380" d="M286.15,608.168l-.341-.718c-.163-.343-16.465-34.725-29.031-71.472a54.2,54.2,0,0,1,3.758-43.438,54.794,54.794,0,0,1,34.942-26.869h0a54.86,54.86,0,0,1,63.676,32.855c9.968,24.926,6.791,51.532,3.8,72.455l-.06.419-.381.182Z" transform="translate(-117.286 331.363)" fill="#ff8e28"></path>
<path id="Path_1381" data-name="Path 1381" d="M335.1,433.319H273.33V406.393c13.558-5.386,26.826-9.967,34.846,0A26.926,26.926,0,0,1,335.1,433.319Z" transform="translate(-104.092 288.16)"></path>
<path id="Path_1382" data-name="Path 1382" d="M290.4,401.185c-36.928,0-47.265,46.288-47.265,72.4,0,14.563,6.586,19.772,16.936,21.534l3.655-19.493,8.561,20.332c2.907.015,5.961-.042,9.127-.1l2.9-5.977,6.472,5.869c25.923.039,46.875,3.817,46.875-22.166C337.669,447.473,328.6,401.185,290.4,401.185Z" transform="translate(-124.587 288.617)"></path>
<path id="Path_1383" data-name="Path 1383" d="M504.885,769.291H182.543a1.679,1.679,0,0,1,0-3.358H504.885a1.679,1.679,0,1,1,0,3.358Z" transform="translate(-166.864 536.23)" fill="#918b87"></path>
<path id="Path_1384" data-name="Path 1384" d="M413.115,481.023H340.924a15.967,15.967,0,0,1-15.949-15.949V392.882a15.967,15.967,0,0,1,15.949-15.949h72.191a15.967,15.967,0,0,1,15.949,15.949v72.191a15.967,15.967,0,0,1-15.949,15.949Z" transform="translate(-69.033 272.152)" fill="#fff"></path>
<path id="Path_1385" data-name="Path 1385" d="M413.115,481.023H340.924a15.967,15.967,0,0,1-15.949-15.949V392.882a15.967,15.967,0,0,1,15.949-15.949h72.191a15.967,15.967,0,0,1,15.949,15.949v72.191a15.967,15.967,0,0,1-15.949,15.949ZM340.924,380.291a12.606,12.606,0,0,0-12.592,12.591v72.191a12.606,12.606,0,0,0,12.592,12.591h72.191a12.605,12.605,0,0,0,12.591-12.591V392.882a12.605,12.605,0,0,0-12.591-12.591Z" transform="translate(-69.033 272.152)" fill="#e8cfbe"></path>
<path id="Path_1386" data-name="Path 1386" d="M391.019,439.763H344.011a5.042,5.042,0,0,1-5.037-5.037V399.47a5.042,5.042,0,0,1,5.037-5.037h13.233a5,5,0,0,1,4.29,2.4l3.691,6h25.794a5.042,5.042,0,0,1,5.037,5.037v26.862a5.042,5.042,0,0,1-5.036,5.037Z" transform="translate(-59.529 284.033)" fill="#ff8e28"></path>
<path id="Path_1387" data-name="Path 1387" d="M424.735,435.7q.352.645.651,1.327a17.427,17.427,0,0,1-10.732,23.686,16.324,16.324,0,0,1-1.659.419l-32.065,82.944a13.534,13.534,0,0,1-13.7,8.56l-.161-.031-69.5-20.922a14.939,14.939,0,1,1,8.875-28.53l49.174,15.788,38.071-67.493a16.575,16.575,0,0,1-.858-2.165,17.427,17.427,0,0,1,31.91-13.584Z" transform="translate(-94.773 305.908)" fill="#c95636"></path>
<g id="Group_50" data-name="Group 50">
<circle id="Ellipse_286" data-name="Ellipse 286" cx="78" cy="78" r="78" transform="translate(210 211)" fill="#fff"></circle>
<path id="Ellipse_286_-_Outline" data-name="Ellipse 286 - Outline" d="M77.784,4.2A74.146,74.146,0,0,0,62.951,5.7a73.154,73.154,0,0,0-26.3,11.069A73.807,73.807,0,0,0,9.985,49.145,73.177,73.177,0,0,0,5.7,62.951a74.338,74.338,0,0,0,0,29.667,73.154,73.154,0,0,0,11.069,26.3,73.807,73.807,0,0,0,32.377,26.663,73.178,73.178,0,0,0,13.806,4.286,74.338,74.338,0,0,0,29.667,0,73.153,73.153,0,0,0,26.3-11.069,73.807,73.807,0,0,0,26.663-32.377,73.178,73.178,0,0,0,4.286-13.806,74.338,74.338,0,0,0,0-29.667,73.153,73.153,0,0,0-11.069-26.3A73.807,73.807,0,0,0,106.423,9.985,73.177,73.177,0,0,0,92.618,5.7,74.146,74.146,0,0,0,77.784,4.2m0-4.2A77.784,77.784,0,1,1,0,77.784,77.784,77.784,0,0,1,77.784,0Z" transform="translate(210 211.432)" fill="#e8cfbe"></path>
<circle id="Ellipse_287" data-name="Ellipse 287" cx="66.5" cy="66.5" r="66.5" transform="translate(222 223)" fill="#fff"></circle>
<path id="Ellipse_287_-_Outline" data-name="Ellipse 287 - Outline" d="M66.432,2.523A63.6,63.6,0,0,0,30.7,13.436,64.1,64.1,0,0,0,7.544,41.556a63.822,63.822,0,0,0,5.892,60.606,64.1,64.1,0,0,0,28.12,23.157,63.822,63.822,0,0,0,60.606-5.892,64.1,64.1,0,0,0,23.157-28.12A63.822,63.822,0,0,0,119.428,30.7,64.1,64.1,0,0,0,91.307,7.544,63.507,63.507,0,0,0,66.432,2.523m0-2.523A66.432,66.432,0,1,1,0,66.432,66.432,66.432,0,0,1,66.432,0Z" transform="translate(221.773 223.205)" fill="#f8eee7"></path>
<circle id="Ellipse_288" data-name="Ellipse 288" cx="10" cy="10" r="10" transform="translate(278 280)" fill="#e8cfbe"></circle>
<path id="Path_1456" data-name="Path 1456" d="M-5951.1-16652.818h-40.136a.841.841,0,0,1-.841-.842.84.84,0,0,1,.841-.84h40.136a.84.84,0,0,1,.841.84A.841.841,0,0,1-5951.1-16652.818Z" transform="translate(6281.058 16942.875)" fill="#e8cfbe"></path>
<path id="Path_1457" data-name="Path 1457" d="M-6001.418-16664.191a1.26,1.26,0,0,1-1.038-.543l-30.107-43.395a1.261,1.261,0,0,1,.317-1.756,1.26,1.26,0,0,1,1.755.316l30.107,43.4a1.262,1.262,0,0,1-.317,1.756A1.253,1.253,0,0,1-6001.418-16664.191Z" transform="translate(6287.535 16951.723)" fill="#e8cfbe"></path>
</g>
<rect id="Rectangle_267" data-name="Rectangle 267" width="1500" height="1500" fill="#fff" opacity="0"></rect>
<circle id="Ellipse_291" data-name="Ellipse 291" cx="5.5" cy="5.5" r="5.5" transform="translate(778 273)"></circle>
<circle id="Ellipse_292" data-name="Ellipse 292" cx="5.5" cy="5.5" r="5.5" transform="translate(810 255)"></circle>
<circle id="Ellipse_293" data-name="Ellipse 293" cx="5.5" cy="5.5" r="5.5" transform="translate(1348 684)"></circle>
</g>
</g>
</svg>